<?xml version="1.0" encoding="UTF-8"?><svg id="Layer_2" xmlns="http://www.w3.org/2000/svg" viewBox="0 0 1062.82 1850.38"><defs><style>.cls-1{fill:#fff;}.cls-2{fill:#6c5e80;}.cls-3{fill:#b9aacd;}.cls-4{fill:#bdadd1;}</style></defs><g id="Layer_1-2"><path class="cls-3" d="m779.02,1490.8c9.46-2.93,16.84.83,23.41,7.24,6.43-11.33,10.24-23.77,15.12-35.76,6.74-16.54,13.45-33.09,20.14-49.65,1.26-3.12,2.77-6.21,3.5-9.46,2.73-12.19,12.19-17.45,21.59-24.09,14.09-9.96,21.22-25.24,20.25-42.74-.89-16.09-7.87-29.97-20.56-40.31-15.05-12.27-39.46-15.95-58.6-4.28-8.4,5.13-16.7,10.39-20.87,19.36-6.56,14.1-10.12,28.73-3.46,44.22,2.47,5.73.31,11.73-2.02,17.31-8.14,19.49-16.05,39.09-24.55,58.42-6.45,14.66-13.61,28.99-17.85,44.52,8.89-1.84,15.71,2.6,22.43,7.37,1.68-3.15,3.66-6.17,4.99-9.46,6.12-15.14,11.91-30.4,18.1-45.51,4.85-11.83,10.37-23.39,15.12-35.26,2.33-5.82,2.77-13.44,11.88-6.6,1.19.89,2.89,1.41,4.39,1.51,6.54.42,7.19,4.3,5.28,9.22-3.27,8.46-6.96,16.75-10.34,25.17-4.66,11.6-9.61,23.07-14.13,34.74-4.42,11.4-9.83,22.44-13.82,34.04Z"/><path class="cls-2" d="m672.26,577.94c-.75.23-1.25-.02-1.53-.76.51.25,1.02.51,1.53.76Z"/><path class="cls-2" d="m678.38,576.73c-.96,1.56-2.21,1.91-3.8.93.99-1.47,2.29-1.64,3.8-.93Z"/><path class="cls-1" d="m670.74,577.18c.51.25,1.02.51,1.53.76-.75.23-1.25-.02-1.53-.76Z"/><path class="cls-1" d="m674.57,577.65c.99-1.47,2.29-1.64,3.8-.93-.96,1.56-2.21,1.91-3.8.93Z"/><path class="cls-2" d="m672.26,577.94c-.75.23-1.25-.02-1.53-.76.51.25,1.02.51,1.53.76Z"/><path class="cls-2" d="m678.38,576.73c-.96,1.56-2.21,1.91-3.8.93.99-1.47,2.29-1.64,3.8-.93Z"/><path class="cls-2" d="m819.33,558.8c-.55.14-1.09.29-1.65.45.39-.76.94-.91,1.65-.45Z"/><path class="cls-4" d="m819.33,558.8c-.55.14-1.09.29-1.65.45.39-.76.94-.91,1.65-.45Z"/><path class="cls-2" d="m1060.29,380.26c-8.88-35.9-42.47-60.8-80.72-57.54-3.84.34-6.52-.64-9.22-3.42-73.24-75.72-146.55-151.38-219.92-226.97-3.32-3.42-4.73-6.82-4.26-11.62,1.43-14.59-2.47-28.55-8.94-41.08C723.53,13.12,700.88-1.44,670.95.11c-30.72,1.6-53.42,17.42-65.66,46.31-2.32,5.46-5.61,8.05-10.85,10.03-8.72,3.31-17.59,6.18-26.37,9.32-17.52,6.26-34.84,13.01-52.34,19.32-15.12,5.45-30.39,10.47-45.53,15.87-14.9,5.32-29.56,11.31-44.59,16.24-29.21,9.57-57.92,20.57-86.94,30.69-21.4,7.46-42.74,15.12-64.12,22.67-2.94,1.03-5.27.42-8.35-1.12-9.18-4.6-18.77-9.04-29.17-9.65-36.04-2.15-68.45,21.34-73.66,59.53-2.11,15.35-1.94,30.87,7.32,44.61,2.66,3.93,3.04,7.9.99,12.32-1.56,3.34-2.54,6.97-3.8,10.46-37.62,104.48-75.34,208.93-112.68,313.53-3.02,8.45-7.45,13.43-15.64,17.17-27.61,12.59-45.02,42.6-38,77.1,6.49,31.75,32.21,53.79,64.32,57.18,3.83.41,6.22,1.79,8.49,4.88,60.2,82.06,120.46,164.07,180.81,246.02,2.3,3.1,2.83,5.91,2.01,9.65-3.87,17.8-2.67,35.22,6.71,51.08,3.81,6.44,3.68,11.79,1.24,18.32-4.44,11.85-8.22,23.94-12.24,35.95-38.96,116.05-77.93,232.08-116.75,348.18-1.68,5.02-4.39,7.8-9.16,9.95-32.02,14.46-51.21,48.01-43.33,85.7,6.61,31.6,32.31,53.51,64.53,57.15,3.66.41,5.92,1.84,7.88,4.79,11.08,16.7,22.19,33.39,33.54,49.91,2.68,3.9,3.2,7.27,2.25,12.01-3.2,16.01-4.11,32.16,5.78,46.47,4.88,7.07,4.56,13.33,1.8,21.16-11.23,31.86-22.26,63.79-33.27,95.73,24.88.77,49.75,1.34,74.63,1.73,9.14-26.55,18.28-53.11,27.4-79.67,1.31-3.83,2.74-6.92,7.18-8.4,14.13-4.69,25.18-13.62,33.44-25.98,1.71-2.54,3.55-3.78,6.77-4.16,20.44-2.42,40.9-4.96,61.33-7.52,4.43-.55,8.84-1.11,13.27-1.67h.01c4.51-.57,9.02-1.13,13.54-1.7,85.97-10.77,171.95-21.53,257.9-32.35,4.55-.58,8.15-.01,11.88,3.32,10.56,9.47,23.15,14.86,37.39,15.16,5.51.12,8.58,2.38,11.63,6.59,27.5,37.94,55.29,75.67,82.74,113.64,3.6,4.97,6.22,5.02,10.92,1.6,14.65-10.6,29-21.59,43.24-32.71,4.7-3.67,4.67-6.33,1.17-11.01-28.42-38.07-56.54-76.35-84.81-114.53-2.07-2.78-3.16-5.22-2.07-8.89,5.07-17.06,1.86-33.29-6.15-48.69-2.03-3.89-2.01-7.07-.64-11.06,12.51-36.07,24.85-72.22,37.23-108.33,0,0,0,0,0,0,0,0,0,0,0,0-5.68-7.95-13.71-9.95-22.88-9.05-11.6,33.32-23.25,66.61-34.7,99.96-1.34,3.91-2.83,4.8-6.4,2.62-2.21-1.34-4.73-2.25-7.18-3.09-9.41-3.22-9.41-3.18-6.18-12.26,11.37-32.03,22.73-64.06,34.09-96.09,0,0,0,0,0,0,0,0,0,0,0,0-4.53-9.77-13.2-10.38-22.27-10.09,0,0,0,0,0,0h0c-1,2.42-2.12,4.79-3,7.26-12.2,34.1-24.52,68.16-36.4,102.38-1.93,5.53-4.95,8.7-10.17,10.73-10.41,4.07-19.06,10.7-25.25,19.97-3.27,4.88-7.32,6.62-12.89,7.26-49.75,5.69-99.47,11.6-149.2,17.46-64.43,7.6-128.85,15.22-193.28,22.85-3.65.43-6.56-.2-9.41-2.97-8.69-8.42-19.18-13.75-31.08-15.67-4.46-.71-6.85-2.86-8.94-6.43-10.49-17.82-21.08-35.58-31.73-53.31-1.54-2.57-1.05-4.74-.11-7.34,7.52-20.88,5.19-41.22-4.7-60.63-2.77-5.43-3.09-9.78-1.2-15.35,21.68-64.07,43.16-128.2,64.71-192.32,21.69-64.53,43.43-129.05,65.03-193.62,1.42-4.22,3.45-6.82,7.8-8.66,17.06-7.24,29.95-19.24,38.06-36.05,1.49-3.12,3.6-4.68,6.75-5.44,14.8-3.56,29.61-7.09,44.34-10.84,23.56-6,47.27-11.56,70.63-18.22,38.75-11.05,78.05-19.85,116.93-30.33,36.37-9.79,72.97-18.69,109.38-28.32,6.21-1.65,10.9-.91,16.42,2.51,24.62,15.3,50.58,16.94,76.51,4.15,41.33-20.38,56.12-67.25,34.71-108.42-2.36-4.52-2.49-8.19-.82-12.84,43.74-121.53,87.42-243.09,130.85-364.75,2.61-7.34,6.46-11.83,13.54-15.09,35.54-16.42,53.69-55.17,44.13-93.74Zm-136.81,68.43c-33.52,92.96-66.97,185.94-100.44,278.92-10.86,30.18-21.8,60.32-32.51,90.55-1.72,4.84-4.16,7.86-9.2,9.91-17.76,7.24-31.6,19.31-40.11,36.65-2.71,5.52-6.26,8.58-12.12,9.31-.71-.47-1.26-.31-1.65.45-61.27,16.46-122.51,33.03-183.81,49.37-39.6,10.56-79.17,21.22-118.63,32.33-12.27,3.45-24.79,6.36-37.05,10.03-3.2.95-5.43-.01-7.81-1.71-11.48-8.21-24.29-12.69-38.33-13.46-3.61-.19-5.88-1.61-8.04-4.49-61.12-81.35-122.34-162.63-183.51-243.96-1.65-2.19-3.51-4.15-2.66-7.58,4.38-17.49,1.41-34.24-6.8-49.93-2.6-4.97-1.95-8.87-.29-13.49,19-52.75,38.54-105.31,56.66-158.38,12.93-37.86,26.55-75.49,40.17-113.09,7.03-19.41,14.32-38.75,21.49-58.13,1.22-3.27,3.36-4.85,6.34-5.99,19.4-7.44,32.87-20.96,40.34-40.29,1.43-3.71,3.66-5.46,7.22-6.61,14.05-4.52,28.18-8.88,42.03-14.01,19.55-7.22,39.37-13.6,59.06-20.36,26.24-9,52.25-18.64,78.6-27.36,27.55-9.13,54.65-19.64,82.35-28.46,18.79-5.99,37.14-13.33,55.64-20.21,4.62-1.72,8.43-1.48,12.84,1.26,12.38,7.71,26.13,10.86,40.64,9.72,4.25-.34,6.85,1.07,9.6,3.98,71.71,75.96,143.47,151.85,215.32,227.67,3.42,3.61,4.72,7,4.2,12.1-1.66,16.28,1.94,31.7,9.87,45.99,1.8,3.27,1.77,5.94.59,9.24Z"/></g></svg>