<?xml version="1.0" encoding="UTF-8"?><svg id="Layer_2" xmlns="http://www.w3.org/2000/svg" viewBox="0 0 820.99 602.5"><defs><style>.cls-1{fill:#6c6c6c;}.cls-2{fill:#fff;}.cls-3{fill:#f98156;}.cls-4{fill:#727272;}.cls-5{fill:#848484;}.cls-6{fill:#4259fd;}.cls-7{fill:#f47f55;}.cls-8{fill:#dfece6;}.cls-9{fill:#696969;}.cls-10{fill:#f17d53;}.cls-11{fill:#818181;}.cls-12{fill:#787878;}.cls-13{fill:#fafcfb;}.cls-14{fill:#8c8b8b;}.cls-15{fill:#f68156;}.cls-16{fill:#4257f6;}.cls-17{fill:#878787;}.cls-18{fill:#636363;}.cls-19{fill:#939292;}.cls-20{fill:#9b9b9b;}.cls-21{fill:#725dde;}.cls-22{fill:#4258fa;}.cls-23{fill:#7b7b7b;}.cls-24{fill:#7963f8;}.cls-25{fill:#949494;}.cls-26{fill:#8a8a8a;}.cls-27{fill:#fa8156;}.cls-28{fill:#919191;}.cls-29{fill:#ea7a52;}</style></defs><g id="Layer_1-2"><path class="cls-2" d="m0,.87c273.45-.29,546.9-.58,820.35-.87.21,200.54.43,401.08.64,601.63-273.45.29-546.9.58-820.35.87C.43,401.96.21,201.42,0,.87Zm247.69,288.97c.12.08.23.16.35.24.02.16.04.32.06.49,0,.1.03.16.12.18,1.4,2.23,2.89,4.39,4.14,6.71.45.83.42,2.02.39,3.03-.06,1.88-.68,3.83-.36,5.63.79,4.48,2.52,8.25,6.64,10.99,5.96,3.96,16,2.11,19.76-4.29.35-.6,1.1-.97,1.66-1.44,3.75-.27,7.49-.57,11.24-.8,4.75-.29,9.49-.53,14.24-.8,4.68-.26,9.36-.54,14.04-.81.39,1.46.8,2.92,1.18,4.39.48,1.84.99,3.67,1.4,5.53.31,1.4,1.17,1.75,2.36,1.5,1.29-.27,2.27-.9,1.95-2.5-.29-1.48-.72-2.93-.97-4.41-.25-1.5-.35-3.03-.52-4.55.55-.08,1.1-.27,1.64-.22,2.03.16,4.29-1.06,6.05.9,3.56,3.97,7.78,5.75,13.12,4.86,9.43-1.57,12.58-9.43,11.31-17.1-.34-2.04-.75-3.71.74-5.31,1.47-2.27,2.96-4.52,4.4-6.82,7.21-11.51,14.38-23.04,21.62-34.53.49-.78,1.41-1.73,2.21-1.8,7.27-.67,12.86-6.75,12.6-15.19-.23-7.32-5.11-12.75-11.56-13.91-.61-.11-1.37-.53-1.67-1.04-1.74-2.94-3.4-5.93-5.01-8.94-1.73-3.24-3.34-6.55-5.08-9.78-1.83-3.41-3.82-6.73-5.63-10.15-2.17-4.09-4.21-8.25-6.37-12.35-.62-1.18-.92-2.19-.57-3.64.54-2.24.85-4.64.73-6.94-.25-4.75-2.17-8.69-6.29-11.27-1.8-1.13-3.94-1.47-5.68-2.4-2.39-1.27-4.43-.08-6.43.14-2.68.3-5.25,1.95-6.98,4.31-2.24,3.05-5.48,2.55-8.48,2.75-2.92.2-5.87.06-8.8.14-2.13.05-4.26.24-6.39.29-2.87.06-5.75.04-8.62.07-2.24.02-4.48.04-6.71.11-2.81.09-5.62.22-8.43.34-2.88-.01-5.76-.12-8.63,0-1.38.06-2.45-.23-3.28-1.36-1.6-1.14-3.09-2.56-4.84-3.36-1.98-.91-4.17-1.58-6.31-1.75-1.74-.14-3.58.51-5.33.99-7.12,1.95-11.74,10.54-9.68,17.86.44,1.57,1.54,3.09.34,5.09-9.13,15.18-18.13,30.46-27.22,45.67-.36.6-1.18,1.14-1.86,1.27-4.33.81-8.13,2.57-10.76,6.31-.99,1.41-2.37,1.22-3.66,1.42-.83.13-1.73-.25-2.59-.22-3.99.1-7.98.19-11.97.42-2,.11-3.97.62-5.97.71-1.62.07-3.25-.35-4.87-.29-1.61.06-3.2.59-4.8.64-1.81.06-3.63-.33-5.44-.25-2.93.13-5.84.56-8.77.71-1.86.09-3.73-.09-5.6-.14-4.27-.01-8.54-.03-12.82-.04-1.62-1.47-3.25-2.93-4.88-4.4.55-.66.99-1.47,1.66-1.95,4.64-3.28,9.07-6.99,14.04-9.64,11.71-6.24,23.66-11.98,35.53-17.88,6.8-3.38,13.67-6.62,20.44-10.06,7.56-3.84,14.47-8.39,19.15-16.04,3.5-5.73,4.18-11.82,3.39-18.15-.41-3.26-1.88-6.38-2.88-9.57-2.24-7.12-4.49-14.24-6.73-21.37-1.81-5.76-3.61-11.52-5.41-17.28-1.25-5.39-2.47-10.79-3.76-16.18-2.44-10.23-6.31-19.64-14.48-26.61-3.6-3.07-7.49-5.52-11.88-7.24-5.64-2.21-11.45-3.45-17.45-3.85-4.08-.27-8.15-.56-12.23-.82-5.5-.36-10.99-.78-16.5-1.01-3.31-.14-3.57.18-4.28,3.5-.24,1.13-.39,2.28-.54,3.43-.67,5.25-1.34,10.49-2,15.74-.73,5.83-1.43,11.66-2.15,17.48-.6,4.18-1.24,8.36-1.8,12.54-.43,3.24-.75,6.5-1.12,9.75-.11,1.04-.21,2.08-.32,3.13-.03.78-.06,1.57-.1,2.35.05.52.11,1.04.16,1.56.1,3.46.6,3.98,3.88,4.32,1.85.19,3.69.48,5.54.72-2.08,1.05-4.2,2.03-6.24,3.16-5.76,3.19-11.66,6.16-17.18,9.73-5.71,3.69-11.12,7.89-16.51,12.07-3.4,2.64-6.67,5.49-9.74,8.52-3.33,3.29-6.38,6.89-9.51,10.39-2.19,2.45-4.56,4.78-6.39,7.5-4.54,6.71-8.98,13.51-13.14,20.48-3.64,6.09-7.18,12.3-10.18,18.74-3.99,8.58-7.56,17.38-11.04,26.2-2.74,6.94-4.79,14.15-5.67,21.61-.87,7.39-2.94,14.39-5.5,21.3-2.33,6.3-4.07,12.72-3.21,19.62.4,3.21,1.02,6.41,2.96,8.87,3.53,4.47,7.54,8.54,11.16,12.95,2.78,3.38,5.46,6.88,7.8,10.59,1.9,3.02,3.33,6.37,4.8,9.66,2.74,6.13,7.21,10.43,13.09,13.2,5.05,2.38,10.37,3.32,15.84,1.89,6.68-1.75,11.34-6.54,15.8-11.56,2.74-3.09,5.58-6.1,8.2-9.3,4.33-5.28,8.64-10.6,12.76-16.06,4.72-6.25,9.31-12.6,13.8-19.02,4.71-6.74,9.28-13.6,13.83-20.46,1.19-1.78,1.5-3.8.44-5.84-.87-1.04-1.74-2.07-2.62-3.11-2.67-2.06-5.34-4.13-8-6.19-2.26-1.76-4.51-3.53-6.77-5.29-1.93-1.49-3.86-2.98-5.78-4.46-.71-.56-1.42-1.12-2.13-1.68-1.74-1.39-3.48-2.78-5.22-4.17.07-.58.15-1.17.22-1.75.88-.94,1.77-1.88,2.65-2.82.34.38.72.73,1.03,1.13,3.24,4.26,7.48,6.76,12.74,6.84,5.04.07,9.43-1.66,12.72-5.91.69-.89,2-1.72,3.08-1.79,6.19-.42,12.4-.65,18.6-.87,4.96-.18,9.93-.22,14.89-.4,6.14-.22,12.29-.52,18.43-.79.74.03,1.47.08,2.21.08,3.11.03,6.22.06,9.33.08,1.94,2.1,3.9,4.21,6.79,4.92,1.66.41,3.35.71,5.03,1.06.99,1.33,1.98,2.67,2.97,4,5.51,8.45,11.02,16.9,16.54,25.35l.2.29v.12s.11.03.11.03c.1.19.19.38.29.57,0,.1.04.18.14.21.07.08.15.15.22.23.11.08.23.16.34.24l.07.49c0,.1.04.17.14.21.07.08.14.15.22.23l.34.24c.02.16.04.33.07.49,0,.1.04.18.14.21l.22.23Zm89.16,96.37c.1.69.14,1.4.3,2.08.51,2.26,1.99,3,3.97,2.03,1.58-.78,1.73-1.95.64-4.85-.63-2.77-1.21-5.56-1.9-8.31-.2-.78-.8-2.12-1.1-2.08-1.26.13-2.48.68-3.7,1.11-.1.04-.18.37-.14.53.64,3.17,1.3,6.33,1.96,9.49Zm13.1,88.69c.31-.32.62-.65.94-.97,1.23-.21,2.46-.65,3.68-.61,7.84.32,16.35-7.01,16.99-15.68.08-1.05.69-2.05,1.05-3.07,1.17-.68,2.35-1.35,3.52-2.03,9.76-5.68,19.51-11.38,29.28-17.04,3.11-1.8,6.28-3.5,9.42-5.24,9.01,4.92,19.75.68,23.34-9.01.11-.3.21-.62.22-.94.13-2.48.43-4.98.29-7.44-.1-1.66-.83-3.29-1.28-4.93,2.64-4.36,5.26-8.72,7.92-13.06,8.91-14.51,17.83-29,26.74-43.5.69-1.12,1.3-1.96,2.86-2.08,3.48-.26,6.98-1.09,9.52-3.67,1.89-1.92,3.79-1.52,5.87-1.13.74.14,1.45.44,2.19.58,9.31,1.72,18.63,3.39,27.94,5.14,8.7,1.63,17.39,3.32,26.07,5.05,1.56.31,2.9.76,3.87,2.57,2.56,4.77,6.59,7.82,11.81,9.08,2.97,1.01,5.95.98,8.92-.01,1.18-.42,2.42-.72,3.53-1.28.83-.42,1.44-.63,2.37-.16,6.16,3.12,12.38,6.13,18.55,9.23,8.64,4.34,17.28,8.71,25.87,13.16.76.39,1.56,1.37,1.73,2.21,1.58,7.72,10.02,14.37,18.04,14.4,7.36.03,16.69-6.8,16.94-15.31.03-1.06.49-2.56,1.25-3.07,12.12-8.19,24.31-16.26,36.49-24.34,8.41-5.58,16.84-11.14,25.28-16.68.79-.52,1.87-1.27,2.59-1.07,3.04.88,6.01,1.29,9.21.94,10.96-1.23,17.64-11.47,14.9-22.36-1.3-5.17-4.59-8.74-9.3-11.18-4.98-2.58-10.08-2.86-15.07-.93-6.58,2.55-10.91,7.35-11.58,14.94-.12,1.38-.73,2.4-1.97,3.18-4.25,2.7-8.42,5.51-12.62,8.29-16.26,10.78-32.52,21.57-48.79,32.33-.47.31-1.16.5-1.71.42-1.38-.18-2.8-.38-4.1-.86-2.57-.95-4.96-.01-7.43.41-1.69.29-3.04,1.94-5.11.86-14.55-7.61-29.16-15.1-43.7-22.71-.91-.47-1.96-1.56-2.11-2.5-.53-3.37-1.99-6.17-4.1-8.7-3.07-3.67-7.14-5.55-11.62-6.26-2.13-.34-4.42.52-6.65.61-2.66.11-5.06,1.19-6.71,3-2.3,2.52-4.78,1.83-7.33,1.4-3.28-.55-6.53-1.35-9.81-1.93-4.13-.73-8.27-1.35-12.41-1.99-3.55-.55-7.1-1.03-10.64-1.6-2.97-.48-5.94-1.02-8.9-1.58-4.14-.79-8.26-1.71-12.42-2.44-2.42-.42-4.26-1.16-5.65-3.65-2.72-4.91-7.47-7.15-12.69-7.72-3.8-.42-7.47.68-10.9,2.88-6.73,4.31-9.5,13.38-6.72,20.47.65,1.66.6,3.1-.4,4.74-11.15,18.13-22.22,36.31-33.33,54.46-.42.68-1.07,1.2-1.62,1.8-8-.49-15.77,7.08-16.36,15.93-.57.48-1.09,1.05-1.73,1.42-3.13,1.82-6.3,3.56-9.44,5.36-5.94,3.42-11.87,6.86-17.8,10.28-.51.24-1.04.46-1.54.74-3.49,1.97-6.95,4-10.48,5.89-.73.39-1.89.71-2.52.38-3-1.57-6.13-2.29-9.46-2.18-.64-2.68-1.28-5.37-1.94-8.05-.46-1.85-1.33-2.4-3.16-2.04-1.87.36-2.64,1.55-2.47,3.45-.36-.34-.75-.66-1.06-1.04-1.76-2.12-3.51-4.26-5.26-6.39-.03-.32-.17-.68-.08-.96,1-3.19.94-6.41.38-9.67-1.68-9.72-8.91-14.35-16.63-15.42-3.47-.48-6.81.57-9.85,2.14-10.08,5.2-13.59,17.69-7.76,27.6,2.62,4.45,6.31,7.67,11.46,8.5,2.72.44,5.51.35,8.27.51,2.68,3.16,5.39,6.3,8.02,9.51,1.36,1.66,2.58,3.45,3.86,5.18-.25,1.69-.49,3.39-.74,5.08.21,1.31.43,2.62.64,3.93-.12,2.89,1.46,5.14,2.82,7.41.68,1.15.58,1.92,0,3-3.97,7.4-7.87,14.83-11.82,22.24-4.12,7.74-8.28,15.47-12.42,23.2-.46-.14-.96-.46-1.38-.38-2.61.55-5.35.83-7.77,1.86-8.07,3.46-12.94,14.35-8.99,23.61,3.54,8.31,11.72,12.46,19.96,9.99,6.13-1.83,10.3-6.03,11.89-12.64.68-2.82.95-5.61.31-8.46.06-3.16-1.41-5.65-3.32-7.95.45-.92.9-1.83,1.34-2.75.32-.68.6-1.38.96-2.04,2.69-4.89,5.44-9.75,8.08-14.67,1.67-3.11,3.13-6.35,4.81-9.46,2.73-5.07,5.57-10.08,8.34-15.14.22-.41.2-.95.29-1.43Zm-7.01-74.86c-3.02.26-3.08,1.59-2.63,3.59.81,3.59,1.54,7.2,2.33,10.8.38,1.76,1.62,1.99,3.07,1.71,1.77-.34,2.56-1.34,2.23-2.9-.8-3.86-1.65-7.71-2.49-11.55-.28-1.29-.91-2.13-2.51-1.65Zm-6.06-35.79c-.21-1.77-.29-3.11-.54-4.42-.43-2.25-.89-4.51-1.48-6.72-.17-.65-.72-1.53-1.26-1.67-3.12-.81-3.96.1-3.3,3.31.01.06,0,.13.02.19.63,3.15,1.38,6.28,1.85,9.45.27,1.8,1.35,1.71,2.53,1.64,1.33-.08,2.41-.48,2.19-1.79Zm-11.98-34.11c.09.9.08,1.3.17,1.67.72,3.03,1.58,6.03,2.14,9.1.32,1.76,1.13,1.93,2.59,1.73,1.71-.23,2.32-1.04,1.93-2.74-.75-3.31-1.54-6.62-2.18-9.96-.31-1.63-1.28-1.92-2.56-1.69-1.25.22-2.38.7-2.09,1.9Z"/><path class="cls-20" d="m99.47,352.51c-4.46,5.02-9.12,9.81-15.8,11.56-5.46,1.43-10.79.48-15.84-1.89-5.88-2.77-10.34-7.08-13.09-13.2-1.47-3.28-2.9-6.64-4.8-9.66-2.34-3.7-5.02-7.21-7.8-10.59-3.62-4.41-7.63-8.47-11.16-12.95-1.94-2.47-2.56-5.66-2.96-8.87-.86-6.9.88-13.32,3.21-19.62,2.56-6.91,4.63-13.91,5.5-21.3.87-7.46,2.93-14.67,5.67-21.61,3.48-8.82,7.05-17.62,11.04-26.2,3-6.44,6.54-12.65,10.18-18.74,4.16-6.96,8.6-13.76,13.14-20.48,1.83-2.71,4.21-5.05,6.39-7.5,3.13-3.51,6.18-7.1,9.51-10.39,3.07-3.03,6.34-5.89,9.74-8.52,5.39-4.18,10.8-8.38,16.51-12.07,5.53-3.57,11.42-6.54,17.18-9.73,2.04-1.13,4.16-2.11,6.24-3.16.48-.12.99-.18,1.45-.38,2.66-1.16,5.26-2.49,7.97-3.52,6.44-2.44,12.94-4.73,19.4-7.1,8.88-3.27,18.14-5.54,26.13-11.04,2.97-2.04,4.61-4.85,5.06-8.45,1.07-.51,1.07-1.04.01-1.57,0-.13-.02-.26-.03-.38,0-1.17,0-2.34,0-3.52.13-.96.46-1.94.35-2.87-.13-1.07-.74-2.06-.97-3.13-1.39-6.55-4.82-11.71-10.05-15.63-2.5-1.87-4.98-3.83-8.41-3.37-.49.07-1.09-.27-1.54-.57-1.45-.96-2.66-.68-3.61.71-.61.89-1.22,1.83-1.62,2.83-.73,1.86-1.22,3.82-1.97,5.66-.25.6-1.03.96-1.57,1.43-.22-.62-.58-1.22-.64-1.85-.2-2.06-.21-4.14-.47-6.18-.07-.56-.7-1.25-1.23-1.45-.34-.13-1.09.42-1.44.85-.59.74-1.11,1.58-1.46,2.45-1.8,4.49-3.52,9-5.31,13.49-.17.43-.62.75-1.27,1.52-.82-3.77-1.19-6.96-.45-10.22.32-1.42.44-2.8-1.1-4.04-.6.84-1.28,1.52-1.66,2.35-1.76,3.87-3.4,7.8-5.16,11.67-.61,1.35-1.36,2.64-2.18,3.86-.3.45-1.18.98-1.5.82-.5-.25-1.01-1.01-1.07-1.6-.25-2.72-.33-5.46-.49-8.19,0-.16-.17-.31-.46-.8-.42.58-.78,1-1.05,1.46-.62,1.05-1.16,2.15-1.79,3.19-1.33,2.19-3.02,4.23-3.95,6.58-.87,2.21-2.08,2.92-4.16,2.63.72-5.83,1.42-11.66,2.15-17.48.65-5.25,1.32-10.5,2-15.74.15-1.15.29-2.3.54-3.43.72-3.32.98-3.64,4.28-3.5,5.5.23,11,.66,16.5,1.01,4.08.26,8.15.55,12.23.82,6,.4,11.81,1.64,17.45,3.85,4.39,1.72,8.28,4.17,11.88,7.24,8.17,6.98,12.04,16.38,14.48,26.61,1.28,5.38,2.51,10.78,3.76,16.18-2.25-.58-2.48-.38-1.87,1.97.48,1.83.87,3.88-.56,5.14-1.55,1.38-1.35,2.9-1.34,4.53,0,.87.16,1.74.24,2.63-2.97-.22-3.14-.05-2.9,3.04.05.67.18,1.33.32,2.32-.54-.33-.82-.44-1.03-.64-.82-.8-1.74-2.1-2.82-1.15-.63.55-.44,2.09-.6,3.2-.02.17.12.37.16.55.38,1.46.76,2.91,1.15,4.37-.79-.47-1.11-1.21-1.61-1.8-.92-1.08-1.87-2.16-2.94-3.06-.37-.31-1.42-.36-1.69-.07-.45.5-.81,1.4-.71,2.05.17,1.13.75,2.19,1.1,3.3.43,1.37.65,2.74-.42,4.04-1.39-1.06-2.67-2.1-4.01-3.04-.46-.32-1.07-.42-1.61-.62-.16.59-.49,1.2-.45,1.78.17,2.38.46,4.75.67,7.12.08.93-.25,1.73-1.28,1.11-.71-.43-1.14-1.32-1.78-1.92-.51-.47-1.13-.81-1.71-1.21-.26.43-.77.88-.75,1.29.15,2.95.48,5.9.57,8.85.02.75-.62,1.52-.95,2.28-.73-.48-1.58-.85-2.16-1.48-.85-.92-1.38-2.18-2.28-3.02-.56-.52-1.74-.93-2.32-.66-.54.25-1.03,1.52-.92,2.24.6,4.04,1.36,8.06,2.12,12.07.17.88.58,1.7.81,2.58.21.81.33,1.66.56,2.89-.67-.35-.95-.4-1.07-.58-2.05-2.86-4.06-5.75-6.14-8.59-.63-.86-1.37-1.71-2.23-2.29-.42-.28-1.38-.13-1.85.19-.36.25-.55,1.15-.43,1.65.55,2.26,1.18,4.5,1.91,6.71.95,2.87,2.07,5.69,2.97,8.58.2.65-.2,1.51-.33,2.27-.58-.3-1.31-.46-1.71-.92-2.08-2.42-4.11-4.9-6.1-7.4-1.28-1.6-2.37-3.36-3.74-4.87-.86-.96-2.06-2.08-3.47-1.17-1.59,1.03-.09,2.14.22,3.2.05.18.14.37.26.52,4.09,5.2,4.96,11.82,7.42,17.74.26.63.04,1.46.04,2.59-.69-.55-1.11-.8-1.42-1.16-2.14-2.55-4.29-5.09-6.36-7.69-1.51-1.9-2.97-3.85-4.34-5.85-1.04-1.51-2.38-2.04-4.09-1.85-1.13.12-1.46.84-1.05,1.77.64,1.48,1.4,2.91,2.19,4.31,2.68,4.75,5.48,9.43,8.07,14.23.8,1.49.84,3.42,1.63,4.92.69,1.31.37,1.99-.67,2.94-.51-.57-1.06-1.01-1.41-1.58-2.91-4.6-5.81-9.22-9.99-12.77-2.12-1.81-4.22-3.65-6.44-5.31-.56-.42-1.57-.22-2.37-.3.2.88.13,1.98.63,2.59,4.66,5.69,9.42,11.31,14.16,16.94,2.09,2.48,2.07,4.35-.24,6.4-.88.78-1.95,1.36-2.98,1.95-1.86,1.07-3.76,2.08-5.64,3.13-.78.43-1.51.98-2.32,1.3-3.24,1.27-6.53,2.4-9.74,3.73-3.18,1.31-5.87,1.51-8.6-1.36-2.31-2.43-5.22-4.26-7.94-6.24-.65-.48-1.62-.5-2.44-.74-.17.27-.35.54-.52.81,1.14,1.19,2.27,2.4,3.44,3.57.75.76,1.62,1.41,2.33,2.21.95,1.08.8,1.99-.75,2.04-2.5.09-5,.05-7.5-.01-.87-.02-1.82-.09-2.58-.46-3.35-1.67-6.58-3.59-9.97-5.15-2.32-1.06-4.84-1.67-7.27-2.49-.47-.36-.94-.72-1.41-1.08-.21-.43-.32-1.01-.66-1.26-3.7-2.76-8.6-2.76-12.14.2-1.23,1.03-3.02,1.93-2.69,4.13-1.02,2.57-2.05,5.15-3.07,7.72-.38.46-.93.85-1.11,1.38-.95,2.76-.28,5.21,1.5,7.41,1.91,2.34,4.32,3.93,7,5.19.93.44,2,1.14,2.43,2.01,1.86,3.77,4.6,6.75,7.4,9.78,1.65,1.78,3.39,4.05,3.78,6.34.64,3.84,2.82,6.64,4.81,9.54,1.63,2.37,2.58,4.68,2.38,7.52-4.85,6.85-9.8,13.64-14.53,20.57-6.16,9.02-11.75,18.42-16.68,28.22-1.09,2.17-1.99,4.45-2.97,6.68-1.65,4.02-3.3,8.03-4.96,12.05l-.68,1.63c0,1.69,0,3.38,0,5.07,0,.91,0,1.82.01,2.73,0,.38.01.75.01,1.13.37,4.36,2.43,7.86,5.85,10.18,3.69,2.51,7.88,4.12,12.45,3.46,3.17-.46,6.26-1.31,8.48-4.08.47-.59,1.55-.67,2.34-.98Z"/><path class="cls-27" d="m422.49,398.33c.54-.6,1.2-1.12,1.62-1.8,11.11-18.15,22.18-36.33,33.33-54.46,1.01-1.64,1.05-3.08.4-4.74-2.79-7.09-.01-16.16,6.72-20.47,3.43-2.2,7.1-3.3,10.9-2.88,5.22.57,9.98,2.81,12.69,7.72,1.38,2.5,3.22,3.23,5.65,3.65,4.15.73,8.27,1.64,12.42,2.44,2.96.57,5.93,1.1,8.9,1.58,3.54.57,7.1,1.05,10.64,1.6,4.14.64,8.29,1.26,12.41,1.99,3.28.58,6.52,1.38,9.81,1.93,2.56.43,5.03,1.12,7.33-1.4,1.65-1.81,4.05-2.89,6.71-3,2.23-.09,4.52-.95,6.65-.61,4.48.71,8.56,2.59,11.62,6.26,2.11,2.53,3.57,5.33,4.1,8.7.15.94,1.2,2.02,2.11,2.5,14.55,7.61,29.16,15.1,43.7,22.71,2.07,1.08,3.42-.57,5.11-.86,2.47-.42,4.85-1.36,7.43-.41,1.3.48,2.72.68,4.1.86.55.07,1.24-.11,1.71-.42,16.28-10.76,32.53-21.55,48.79-32.33,4.2-2.78,8.37-5.6,12.62-8.29,1.24-.79,1.85-1.8,1.97-3.18.67-7.59,5-12.39,11.58-14.94,4.99-1.93,10.09-1.65,15.07.93,4.71,2.44,8,6,9.3,11.18,2.73,10.89-3.95,21.13-14.9,22.36-3.2.36-6.17-.06-9.21-.94-.71-.21-1.8.55-2.59,1.07-8.44,5.53-16.87,11.1-25.28,16.68-12.19,8.08-24.38,16.15-36.49,24.34-.76.51-1.22,2.01-1.25,3.07-.25,8.51-9.58,15.33-16.94,15.31-8.02-.03-16.46-6.69-18.04-14.4-.17-.84-.97-1.82-1.73-2.21-8.59-4.45-17.23-8.81-25.87-13.16-6.17-3.1-12.39-6.11-18.55-9.23-.93-.47-1.54-.26-2.37.16-1.11.56-2.35.87-3.53,1.28-2.97,0-5.95,0-8.92.01-5.22-1.26-9.25-4.31-11.81-9.08-.97-1.8-2.31-2.26-3.87-2.57-8.68-1.73-17.37-3.41-26.07-5.05-9.31-1.75-18.63-3.42-27.94-5.14-.74-.14-1.45-.44-2.19-.58-2.08-.39-3.97-.79-5.87,1.13-2.54,2.58-6.04,3.4-9.52,3.67-1.56.12-2.18.96-2.86,2.08-8.91,14.51-17.83,29-26.74,43.5-2.66,4.34-5.28,8.71-7.92,13.06-1.27-.07-2.74.27-3.77-.27-2.9-1.55-5.74-3.29-8.36-5.3-1.22-.94-1.87-2.67-2.78-4.04Z"/><path class="cls-3" d="m100.52,205.89c.47.36.94.72,1.41,1.08.43.63.87,1.26,1.3,1.89-.61.37-1.35.61-1.79,1.13-.81.96-1.36,2.14-2.16,3.11-1.52,1.87-1.33,2.92.97,3.62,6.65,2.03,13.15,4.43,19.18,8.02.51.3,1.19.31,1.79.45,2.14,1.34,4.24,2.74,6.43,3.99.63.36,1.55.57,2.21.39,4.25-1.14,8.34-.89,12.29,1.13,1.62,1.47,3.25,2.93,4.87,4.4.47.22.96.64,1.42.62,3.8-.15,7.6-.37,11.4-.58,1.87.06,3.74.24,5.6.14,2.93-.15,5.84-.58,8.77-.71,1.81-.08,3.63.31,5.44.25,1.61-.05,3.2-.59,4.8-.64,1.62-.06,3.26.36,4.87.29,2-.09,3.97-.59,5.97-.71,3.99-.22,7.98-.32,11.97-.42.86-.02,1.76.35,2.59.22,1.28-.19,2.66,0,3.66-1.42,2.63-3.74,6.44-5.5,10.76-6.31.68-.13,1.5-.67,1.86-1.27,9.09-15.21,18.08-30.49,27.22-45.67,1.2-2,.1-3.52-.34-5.09-2.06-7.32,2.56-15.91,9.68-17.86,1.75-.48,3.59-1.13,5.33-.99,2.14.17,4.33.85,6.31,1.75,1.75.8,3.24,2.22,4.84,3.36.24,1.4,1.01,1.83,2.4,1.78,2.59-.11,5.19.02,7.78-.01.58,0,1.15-.26,1.72-.4,2.81-.12,5.62-.25,8.43-.34,2.24-.07,4.48-.09,6.71-.11,2.87-.03,5.75-.01,8.62-.07,2.13-.05,4.26-.24,6.39-.29,2.93-.07,5.88.07,8.8-.14,3.01-.21,6.24.29,8.48-2.75,1.73-2.35,4.3-4.01,6.98-4.31,2.01-.22,4.04-1.41,6.43-.14,1.74.92,3.88,1.27,5.68,2.4,4.13,2.59,6.04,6.52,6.29,11.27.12,2.3-.19,4.69-.73,6.94-.35,1.45-.05,2.45.57,3.64,2.16,4.1,4.2,8.26,6.37,12.35,1.82,3.42,3.8,6.74,5.63,10.15,1.74,3.23,3.35,6.55,5.08,9.78,1.61,3.01,3.27,6,5.01,8.94.3.51,1.06.93,1.67,1.04,6.46,1.16,11.33,6.59,11.56,13.91.26,8.44-5.33,14.52-12.6,15.19-.79.07-1.71,1.02-2.21,1.8-7.24,11.49-14.42,23.02-21.62,34.53-1.43,2.29-2.93,4.55-4.4,6.82-1.04,0-2.11-.18-3.13,0-2.93.53-5.08-.12-5.97-2.36-.43-1.09-.4-2.51-.21-3.72.4-2.59.84-5.21,1.64-7.68.63-1.93,1.87-3.65,2.73-5.51.16-.35-.19-.96-.3-1.45.22-.36.44-.72.66-1.09,2.03.24,1.66-1.17,1.57-2.4.38-.74.72-1.51,1.15-2.22,4.92-7.95,9.88-15.88,14.75-23.86.43-.71.67-1.84.46-2.62-1-3.73-1.08-7.35.47-10.97.2-.46.01-1.26-.25-1.75-3.27-6.21-6.55-12.42-9.9-18.58-4.2-7.7-8.45-15.37-12.75-23.01-.38-.68-1.19-1.36-1.91-1.52-3.7-.82-6.84-2.51-9.33-5.49-.41-.49-1.29-.81-1.95-.8-3.08.05-6.16.25-9.24.37-4.09.15-8.18.27-12.27.4-4.41.14-8.82.29-13.22.4-6.24.15-12.49.25-18.73.44-.67.02-1.6.33-1.93.84-2.61,4.01-6.38,5.85-10.85,6.67-.9.16-1.94.95-2.45,1.77-3.3,5.31-6.45,10.73-9.7,16.08-2.47,4.07-5.07,8.05-7.51,12.14-3.08,5.17-6.04,10.42-9.07,15.63-.89,1.53-1.79,2.7-1.01,4.94,1.24,3.54.7,7.37-.24,11.03-.91.89-1.91,1.69-2.7,2.67-1.58,1.99-1.46,2.25.81,3.15.4.16.84.33,1.13.64,3.28,3.44,6.51,6.94,9.83,10.35.77.79,1.81,1.3,2.72,1.94.51.79,1.03,1.59,1.54,2.38.3,3.24.56,3.62,2.59,3.85.57.9,1.15,1.79,1.72,2.69-.38,1.82.05,3.4,1.1,4.93.79,1.14,1.27,2.51,1.91,3.77.78,1.54,1.44,3.17,2.42,4.57,2,2.85,1.95,5.3-.46,7.52-2.29,2.11-5.89,2.92-8.16.47-.86-.94-1.61-2-2.51-2.88-1.09-1.07-2.3-2.02-3.46-3.03-.09-.02-.13-.08-.12-.18-.02-.16-.04-.33-.06-.49-.12-.08-.23-.16-.35-.24,0-.16-.07-.23-.22-.23-.09-.04-.14-.11-.14-.21-.02-.16-.04-.33-.07-.49-.11-.08-.23-.16-.34-.24,0-.16-.07-.23-.22-.23-.09-.04-.14-.11-.14-.21-.02-.16-.04-.33-.07-.49-.11-.08-.23-.16-.34-.24,0-.16-.07-.24-.22-.23-.09-.04-.14-.11-.14-.21-.1-.19-.19-.38-.29-.57,0,0-.11-.03-.11-.03,0,0,0-.12,0-.12-.07-.1-.14-.19-.2-.29-5.51-8.45-11.02-16.9-16.54-25.35.71-1.77,1.41-3.54,2.33-5.85-1.99.7-3.65,1.27-5.31,1.85-1.68-.35-3.37-.65-5.03-1.06-2.89-.71-4.84-2.81-6.79-4.92-.49-.2-.99-.58-1.47-.57-3.36.09-6.71.26-10.07.4-6.14.27-12.28.57-18.43.79-4.96.18-9.93.22-14.89.4-6.2.22-12.41.45-18.6.87-1.08.07-2.38.9-3.08,1.79-3.28,4.25-7.68,5.98-12.72,5.91-5.26-.08-9.5-2.57-12.74-6.84-.31-.41-.68-.76-1.03-1.13-.58-2.23-1.25-4.44-1.7-6.7-.27-1.36-.79-2.29-1.97-3.03-1.54-.97-2.94-2.18-4.4-3.29-.53-.39-1.05-.78-1.58-1.16-.37-.25-.73-.5-1.1-.75-.39-.27-.77-.55-1.16-.82-.37-.26-.74-.51-1.11-.77-.41-.62-.72-1.34-1.23-1.85-3.69-3.7-7.43-7.35-11.12-11.05-1.47-1.47-2.96-2.07-4.84-.74-2.43,1.71-4.59.94-6.65-.84-.44-.38-1.09-.49-1.65-.73-.12-1.3-.24-2.6-.37-3.91,1.02-2.57,2.05-5.15,3.07-7.72,4.46-4.76,9.52-6.37,15.5-3.07Zm130.26,54.23c.82,1.35,1.82,2.94,2.77,4.57,2.22,3.79,4.27,7.69,6.66,11.35,2.87,4.39,5.91,8.67,9.11,12.81,1.91,2.47,4.21,4.63,6.41,6.87,1.71,1.74,3.19.21,4.56-.62,1.29-.78,2.06-2.23,1.43-3.69-1.35-3.12-2.96-6.12-4.5-9.16-.52-1.03-1.15-2-1.7-3.02-1.93-3.51-3.49-7.31-5.87-10.46-3.33-4.43-7.27-8.37-10.93-12.53-1.13-1.28-2.44-1.96-4.03-1.06-1.73.98-3.14,2.33-3.91,4.94Zm26.81-77.87c-8.83,14.85-17.65,29.67-26.48,44.51,1.74,1.08,3.23,2.01,4.84,3.02.45-.71.86-1.35,1.25-2,4.92-8.25,9.84-16.5,14.75-24.76,3.2-5.37,6.4-10.75,9.59-16.13.46-.77,1.11-1.56-.09-2.28-1.24-.74-2.48-1.51-3.86-2.36Zm123.21,37.83c-7.2-13.39-14.35-26.69-21.54-40.06-1.8,1.03-3.44,1.96-5.22,2.97,7.23,13.39,14.42,26.69,21.62,40.02,1.81-1.04,3.39-1.94,5.13-2.94Z"/><path class="cls-25" d="m103.23,208.86c-.43-.63-.87-1.26-1.3-1.89,2.43.81,4.95,1.42,7.27,2.49,3.39,1.56,6.63,3.48,9.97,5.15.76.38,1.71.44,2.58.46,2.5.06,5,.11,7.5.01,1.54-.06,1.7-.96.75-2.04-.71-.8-1.57-1.45-2.33-2.21-1.16-1.17-2.29-2.38-3.44-3.57.17-.27.35-.54.52-.81.82.23,1.78.26,2.44.74,2.72,1.98,5.64,3.81,7.94,6.24,2.73,2.87,5.43,2.68,8.6,1.36,3.21-1.33,6.5-2.45,9.74-3.73.82-.32,1.54-.87,2.32-1.3,1.88-1.04,3.77-2.05,5.64-3.13,1.03-.59,2.1-1.16,2.98-1.95,2.31-2.05,2.32-3.92.24-6.4-4.74-5.63-9.5-11.24-14.16-16.94-.5-.61-.44-1.72-.63-2.59.8.08,1.81-.12,2.37.3,2.22,1.66,4.32,3.51,6.44,5.31,4.18,3.56,7.08,8.17,9.99,12.77.36.57.9,1.01,1.41,1.58,1.04-.95,1.36-1.63.67-2.94-.79-1.5-.83-3.43-1.63-4.92-2.58-4.8-5.38-9.48-8.07-14.23-.79-1.4-1.55-2.83-2.19-4.31-.41-.93-.08-1.65,1.05-1.77,1.72-.19,3.06.33,4.09,1.85,1.37,2,2.83,3.96,4.34,5.85,2.07,2.6,4.22,5.14,6.36,7.69.3.36.73.61,1.42,1.16,0-1.12.22-1.96-.04-2.59-2.46-5.92-3.33-12.54-7.42-17.74-.12-.15-.2-.34-.26-.52-.31-1.06-1.81-2.18-.22-3.2,1.41-.9,2.6.21,3.47,1.17,1.36,1.51,2.46,3.27,3.74,4.87,2,2.5,4.02,4.98,6.1,7.4.4.46,1.13.62,1.71.92.12-.76.53-1.61.33-2.27-.9-2.89-2.03-5.7-2.97-8.58-.73-2.21-1.36-4.45-1.91-6.71-.12-.51.07-1.41.43-1.65.47-.33,1.43-.48,1.85-.19.86.58,1.6,1.43,2.23,2.29,2.08,2.84,4.09,5.73,6.14,8.59.12.17.4.23,1.07.58-.24-1.23-.35-2.08-.56-2.89-.23-.87-.65-1.7-.81-2.58-.76-4.01-1.52-8.03-2.12-12.07-.11-.72.38-1.99.92-2.24.58-.27,1.76.14,2.32.66.9.84,1.43,2.09,2.28,3.02.58.63,1.43,1,2.16,1.48.34-.76.98-1.53.95-2.28-.09-2.95-.42-5.9-.57-8.85-.02-.42.48-.86.75-1.29.57.4,1.2.74,1.71,1.21.64.6,1.06,1.49,1.78,1.92,1.03.62,1.36-.18,1.28-1.11-.21-2.38-.51-4.74-.67-7.12-.04-.58.29-1.18.45-1.78.54.2,1.15.3,1.61.62,1.34.94,2.62,1.98,4.01,3.04,1.07-1.3.85-2.67.42-4.04-.35-1.11-.93-2.17-1.1-3.3-.1-.65.25-1.56.71-2.05.26-.29,1.32-.24,1.69.07,1.08.9,2.03,1.98,2.94,3.06.49.58.81,1.32,1.61,1.8-.38-1.46-.76-2.91-1.15-4.37-.05-.19-.19-.38-.16-.55.15-1.1-.03-2.64.6-3.2,1.08-.95,2,.35,2.82,1.15.21.2.49.31,1.03.64-.14-.99-.27-1.65-.32-2.32-.23-3.09-.07-3.26,2.9-3.04-.09-.89-.24-1.76-.24-2.63-.01-1.63-.21-3.15,1.34-4.53,1.42-1.27,1.04-3.31.56-5.14-.61-2.35-.38-2.55,1.87-1.97,1.8,5.76,3.6,11.52,5.41,17.28,2.24,7.12,4.49,14.25,6.73,21.37-1.26-.03-1.22.94-1.47,1.83-.5,1.77-.75,3.89-1.88,5.11-1.4,1.52-1.19,2.79-.8,4.38.18.75.43,1.52.4,2.27-.05,1.26-.9,1.58-1.83.94-.64-.44-1.08-1.22-1.55-1.89-.37-.53-.65-1.14-.97-1.71-.2.04-.4.07-.6.11-.05.61-.14,1.22-.14,1.83,0,.9.17,1.8.12,2.7-.07,1.45-.18,2.9-.43,4.32-.08.43-.63,1.03-1.04,1.09-2.61.41-3.45,2.67-4.02,4.63-.59,2.05-1.5,3.3-3.39,3.98-2.45.88-3.38,2.7-3.02,5.27.08.59-.27,1.54-.73,1.87-3.31,2.35-6.65,4.68-10.09,6.83-3.18,1.98-6.47,3.79-9.77,5.57-3.4,1.84-6.92,3.46-10.3,5.33-2.49,1.37-4.74,3.26-7.3,4.44-4.3,1.98-8.77,3.58-13.17,5.36-.35.14-.65.41-.99.56-4.8,2.12-9.53,4.45-14.43,6.27-4.43,1.64-9.05,2.76-13.61,4.01-1.37.38-3,.96-4.22.54-2.66-.91-5.36-2.08-7.65-3.73-4.72-3.39-9.82-5.49-15.5-6.19-.4-1.05-.8-2.1-1.2-3.15-.1-.11-.2-.22-.29-.33-.13-.27-.26-.54-.38-.81Z"/><path class="cls-15" d="m372.61,454.57c-.36,1.02-.98,2.03-1.05,3.07-.64,8.68-9.15,16-16.99,15.68-1.22-.05-2.45.39-3.68.61-1.73-.86-3.47-1.73-5.2-2.6-.47.25-1.15.39-1.36.78-4.14,7.58-8.24,15.2-12.33,22.81-2.87,5.34-5.75,10.68-8.57,16.05-.89,1.69-1.58,3.5-2.36,5.25-.65,1.17-1.19,2.43-1.99,3.47-.56.72-1.49,1.15-2.25,1.7-.31-.02-.62-.05-.94-.06-2.59-.08-3.33-1.4-2.12-3.75.56-1.08,1.1-2.17,1.65-3.25,4.14-7.73,8.29-15.46,12.42-23.2,3.95-7.41,7.84-14.85,11.82-22.24.58-1.08.68-1.85,0-3-1.35-2.27-2.94-4.52-2.82-7.41.72.21,1.46.39,2.17.65,3.39,1.27,7.04,2.04,10.41,1.06,4.16-1.21,8.34-2.85,11.03-6.94,2.31-3.53,3.86-7.09,2.82-11.45-.14-.58.25-1.29.39-1.94.63.19,1.46.19,1.85.61,1.26,1.35,2.41,2.81,3.5,4.31.98,1.36,1.82,2.82,2.72,4.24l.58-.17c.11-.86.26-1.71.31-2.57.1-1.68-.27-3.53.3-5,1.19-3.08,2.87-5.97,4.32-8.95.13-.26-.04-.67-.07-1.02,5.93-3.43,11.86-6.87,17.8-10.28,3.14-1.8,6.31-3.55,9.44-5.36.63-.37,1.15-.94,1.73-1.42.42-.12.91-.12,1.23-.37,1.55-1.21,3.03-.89,4.52.08,2.62,1.7,4.46,4.12,5.3,7.1,1.12,3.97,1.71,6.93-2.36,9.19-3.14,1.74-6.31,3.44-9.42,5.24-9.77,5.66-19.52,11.36-29.28,17.04-1.17-.69-2.34-1.37-3.61-2.11-.7,1.74-1.16,2.99.09,4.14Z"/><path class="cls-28" d="m136.1,93.23c2.09.29,3.3-.42,4.16-2.63.92-2.36,2.62-4.39,3.95-6.58.63-1.04,1.18-2.14,1.79-3.19.27-.47.63-.88,1.05-1.46.29.49.45.64.46.8.16,2.73.25,5.47.49,8.19.05.59.56,1.35,1.07,1.6.32.15,1.19-.37,1.5-.82.82-1.22,1.57-2.51,2.18-3.86,1.76-3.87,3.4-7.8,5.16-11.67.38-.83,1.06-1.51,1.66-2.35,1.54,1.24,1.43,2.62,1.1,4.04-.74,3.26-.37,6.46.45,10.22.65-.77,1.1-1.08,1.27-1.52,1.79-4.49,3.51-9.01,5.31-13.49.35-.88.88-1.72,1.46-2.45.34-.43,1.09-.98,1.44-.85.53.2,1.16.9,1.23,1.45.26,2.05.27,4.13.47,6.18.06.63.42,1.23.64,1.85.54-.47,1.32-.83,1.57-1.43.76-1.84,1.25-3.8,1.97-5.66.39-1.01,1-1.94,1.62-2.83.95-1.38,2.16-1.66,3.61-.71.45.3,1.06.63,1.54.57,3.43-.46,5.91,1.5,8.41,3.37,5.23,3.92,8.67,9.08,10.05,15.63.23,1.07.84,2.06.97,3.13.11.93-.22,1.91-.35,2.87-.13-.26-.26-.52-.39-.78-.38-1.3-.76-2.6-1.14-3.91-.16-.69-.27-1.4-.48-2.07-1.14-3.68-2.03-4.3-4.98-3.5-.1-.22-.17-.47-.3-.68-.55-.9-1.12-1.78-1.69-2.67-.8.86-1.61,1.72-2.4,2.6-.16.18-.23.46-.35.69-.52,1-1.03,1.99-1.55,2.99-.2,0-.4,0-.6,0-.58-1.72-1.16-3.44-1.85-5.46-2.27,1.92-2.91,4.21-3.68,6.45-.54,1.57-1.17,3.12-1.86,4.63-.17.39-.75.86-1.08.81-.34-.04-.69-.63-.89-1.05-.21-.45-.29-.99-.36-1.5-.29-2.33-.56-4.66-.83-6.99-.22-.06-.45-.13-.67-.19-.33.57-.74,1.11-.98,1.72-1.91,4.79-3.76,9.6-5.7,14.36-.25.62-.94,1.05-1.43,1.57-.48-.61-1.09-1.16-1.4-1.86-.56-1.26-.93-2.6-1.53-4.36-.96,1.16-1.72,1.91-2.28,2.79-1.61,2.55-3.1,5.18-4.7,7.74-1.47,2.35-1.88,2.37-4.27,1.21-1.31-.63-2.89-1.04-3.92.43-2.47,3.54-5.45,6.15-9.76,7.05-2.96.61-5.69,1.94-8.11,3.86.37-3.25.69-6.5,1.12-9.75.55-4.19,1.19-8.36,1.8-12.54Z"/><path class="cls-6" d="m325.07,434.8c-2.76-.15-5.56-.07-8.27-.51-5.15-.83-8.84-4.04-11.46-8.5-5.83-9.91-2.31-22.41,7.76-27.6,3.04-1.57,6.38-2.62,9.85-2.14,7.72,1.07,14.95,5.7,16.63,15.42.56,3.26.62,6.48-.38,9.67-.09.28.05.64.08.96-2.68,6.66-7.45,10.85-14.2,12.7Z"/><path class="cls-14" d="m105.11,213.15c5.68.7,10.78,2.8,15.5,6.19,2.29,1.64,4.98,2.81,7.65,3.73,1.22.42,2.84-.16,4.22-.54,4.56-1.25,9.18-2.37,13.61-4.01,4.91-1.82,9.63-4.15,14.43-6.27.35-.15.64-.42.99-.56,4.39-1.77,8.86-3.37,13.17-5.36,2.56-1.18,4.81-3.07,7.3-4.44,3.39-1.87,6.9-3.49,10.3-5.33,3.3-1.78,6.59-3.59,9.77-5.57,3.44-2.15,6.78-4.48,10.09-6.83.46-.33.82-1.28.73-1.87-.37-2.57.56-4.39,3.02-5.27,1.89-.68,2.8-1.93,3.39-3.98.57-1.96,1.41-4.22,4.02-4.63.41-.06.96-.67,1.04-1.09.25-1.42.36-2.88.43-4.32.04-.9-.11-1.8-.12-2.7,0-.61.09-1.22.14-1.83.2-.04.4-.07.6-.11.32.57.6,1.17.97,1.71.47.67.91,1.45,1.55,1.89.93.64,1.78.32,1.83-.94.03-.75-.21-1.52-.4-2.27-.39-1.59-.6-2.86.8-4.38,1.13-1.22,1.38-3.35,1.88-5.11.25-.89.21-1.87,1.47-1.83.99,3.18,2.47,6.3,2.88,9.57.79,6.33.11,12.43-3.39,18.15-4.68,7.65-11.6,12.2-19.15,16.04-6.77,3.44-13.64,6.67-20.44,10.06-11.87,5.9-23.83,11.64-35.53,17.88-4.97,2.65-9.4,6.35-14.04,9.64-.67.47-1.11,1.29-1.65,1.94-3.95-2.03-8.04-2.27-12.29-1.13-.67.18-1.59-.03-2.21-.39-2.18-1.25-4.29-2.65-6.43-3.99-.32-.31-.6-.68-.96-.93-4.6-3.09-9.22-6.14-13.79-9.27-.59-.4-.91-1.22-1.36-1.84Z"/><path class="cls-10" d="m353.01,271.34c.11.49.47,1.09.3,1.45-.86,1.86-2.11,3.58-2.73,5.51-.8,2.48-1.24,5.09-1.64,7.68-.19,1.21-.22,2.62.21,3.72.89,2.24,3.04,2.89,5.97,2.36,1.01-.18,2.08-.01,3.13,0-1.48,1.6-1.07,3.27-.74,5.31,1.27,7.67-1.88,15.53-11.31,17.1-5.34.89-9.56-.9-13.12-4.86-1.76-1.96-4.01-.74-6.05-.9-.54-.04-1.09.14-1.64.22-.43-1.53-.81-3.02-2.93-2.75-1.69.22-2.45,1.12-2.47,2.8-4.68.27-9.36.54-14.04.81-4.75.27-9.5.5-14.24.8-3.75.23-7.5.53-11.24.8-.22-.39-.71-.86-.63-1.15,1.33-4.32-.03-8.22-1.57-12.15-.2-.52.21-1.3.34-1.95,1.75.12,3.5.24,5.26.36l.42-.3c.37-.05.75-.09,1.12-.14.39-.09.78-.17,1.17-.26,1.39.12,2.79.25,4.18.37-.6,1.34-.23,2.28,1.08,2.88.93.43,1.83.93,2.74,1.4-2.92.23-5.85.45-8.77.68-.03-.04-.08-.13-.1-.12-.09.02-.17.07-.26.11-1.01.03-2.04-.05-3.02.15-.56.11-1.36.59-1.49,1.07-.67,2.36.74,3.93,3.05,3.58.12-.02.25-.01.38-.02,7.47-.4,14.94-.81,22.42-1.19,6.09-.3,12.19-.53,18.29-.85,1.55-.08,3.09-.34,4.69-.52v-4.24c-2.85,0-5.53,0-8.21,0-.01-.13-.03-.27-.04-.4,1.34-1.28.79-2.8.49-4.28,1.92-.21,3.83-.44,5.75-.63,1.61-.16,3.42.22,4.51-1.43,2.51-3.79,6.13-5.61,10.36-6.5.74-.16,1.6-.71,2.01-1.34,2.85-4.35,5.6-8.77,8.38-13.17Z"/><path class="cls-5" d="m137.89,272.52c2.67,2.06,5.34,4.13,8,6.19-.04,3.46-2.46,5.2-4.82,6.94-2.24,1.65-4.53,3.24-6.84,4.79-.73.49-1.58.78-2.38,1.13-1.17.52-2.46.84-3.5,1.55-2.04,1.39-3.96,2.96-5.89,4.5-1.23.98-2.53,1.92-3.55,3.1-1.62,1.87-3.05,3.91-4.53,5.91-.83,1.13-1.58,2.32-2.36,3.48-.92,1.37-1.82,2.75-2.76,4.11-.47.68-1.13,1.25-1.51,1.98-1.82,3.49-3.26,7.1-6.09,10.08-2.29,2.41-2.81,6.2-5.12,8.87-1.02,1.18-1.24,3.07-1.9,4.61-1.21,2.81-3.1,4.87-6.07,5.79-.45.14-.73.8-1.16,1.1-1.41,1-2.06,3.52-4.54,2.46-.14-.06-.43-.01-.53.1-1.69,1.94-3.63,1.29-5.58.6-2.66-1.1-4.5-2.99-5.33-5.85,2.46.12,4.91.28,7.37.34.45.01,1.02-.23,1.34-.55,2.33-2.33,4.61-4.7,6.89-7.08.26-.27.39-.66.58-1,1.12-1.92,2.23-3.84,3.35-5.75.45-.77.97-1.51,1.38-2.3,2.97-5.63,5.58-11.49,8.95-16.83,3.76-5.95,8.1-11.54,12.43-17.09,1.79-2.3,3.41-5.05,6.7-5.7.55-.11,1.25-.87,1.4-1.47.89-3.37,3.83-4.61,6.36-5.57,2.52-.95,4.83-1.77,7.16-3.38,2.15-1.49,2.8-2.8,2.53-5.09Z"/><path class="cls-22" d="m315.43,514.35c-.55,1.08-1.1,2.17-1.65,3.25-1.21,2.35-.47,3.67,2.12,3.75.31,0,.62.04.94.06.62.88,1.05,2.07,1.88,2.59,2.15,1.33,4.43,2.48,6.75,3.48,1.23.53,2.65.59,3.99.86.64,2.85.37,5.64-.31,8.46-1.59,6.6-5.76,10.8-11.89,12.64-8.24,2.47-16.42-1.68-19.96-9.99-3.94-9.26.92-20.15,8.99-23.61,2.42-1.04,5.16-1.32,7.77-1.86.42-.09.92.24,1.38.38Z"/><path class="cls-23" d="m137.89,272.52c.27,2.29-.38,3.6-2.53,5.09-2.32,1.61-4.63,2.43-7.16,3.38-2.53.95-5.47,2.2-6.36,5.57-.16.59-.85,1.36-1.4,1.47-3.28.64-4.9,3.4-6.7,5.7-4.33,5.55-8.67,11.14-12.43,17.09-3.38,5.35-5.99,11.21-8.95,16.83-.42.79-.93,1.53-1.38,2.3-1.12,1.91-2.24,3.83-3.35,5.75-.19.33-.32.73-.58,1-2.28,2.38-4.56,4.75-6.89,7.08-.32.32-.89.56-1.34.55-2.46-.06-4.91-.22-7.37-.34-.37-.02-.73-.03-1.1-.05,0-.38-.01-.75-.02-1.13.12-.91.24-1.82.36-2.73,1.18-.39,2.37-.77,3.54-1.17.46-.16,1.07-.24,1.33-.59,1.45-1.95,2.94-3.88,4.17-5.97,3.11-5.24,5.94-10.67,9.17-15.82,3.92-6.24,7.96-12.43,12.29-18.38,4.48-6.15,8.81-12.46,14.34-17.74,2.66-2.54,5.15-5.27,7.72-7.91.27-.27.56-.54.89-.72,1.9-1.01,3.84-1.95,5.71-3.03.53-.31.85-1,1.26-1.52,2.26,1.76,4.51,3.53,6.77,5.29Z"/><path class="cls-26" d="m76.78,349.83c1.95.69,3.89,1.34,5.58-.6.1-.11.38-.16.53-.1,2.48,1.05,3.12-1.47,4.54-2.46.43-.31.71-.96,1.16-1.1,2.96-.92,4.85-2.99,6.07-5.79.66-1.53.88-3.42,1.9-4.61,2.3-2.67,2.83-6.46,5.12-8.87,2.83-2.98,4.27-6.59,6.09-10.08.38-.73,1.03-1.3,1.51-1.98.94-1.35,1.84-2.74,2.76-4.11.78-1.16,1.53-2.36,2.36-3.48,1.47-2,2.91-4.04,4.53-5.91,1.02-1.18,2.32-2.12,3.55-3.1,1.93-1.54,3.85-3.12,5.89-4.5,1.04-.71,2.33-1.03,3.5-1.55.81-.36,1.66-.65,2.38-1.13,2.31-1.55,4.59-3.14,6.84-4.79,2.36-1.74,4.78-3.48,4.82-6.94.87,1.04,1.74,2.07,2.62,3.11-2.23,2.67-4.45,5.35-6.69,8.02-3.85,4.59-7.71,9.17-11.57,13.75-.58.69-1.25,1.29-1.77,2.02-3.83,5.28-7.6,10.59-11.44,15.86-4.14,5.69-8.32,11.35-12.52,17-2.06,2.77-3.87,5.86-6.4,8.1-2.66,2.35-5.23,5.02-9.28,5.51-1.82.22-3.71.91-5.64.85-2.55-.08-4.55-1.47-6.42-3.09Z"/><path class="cls-16" d="m414.83,430.26c4.07-2.26,3.48-5.22,2.36-9.19-.84-2.99-2.68-5.41-5.3-7.1-1.5-.97-2.97-1.29-4.52-.08-.32.25-.82.26-1.23.37.59-8.85,8.36-16.42,16.36-15.93.91,1.37,1.56,3.1,2.78,4.04,2.62,2.01,5.45,3.75,8.36,5.3,1.03.55,2.5.21,3.77.27.45,1.64,1.18,3.26,1.28,4.93.14,2.47-.16,4.96-.29,7.44-.02.32-.11.64-.22.94-3.59,9.69-14.33,13.93-23.34,9.01Z"/><path class="cls-7" d="m278.59,296.12c-.13.66-.54,1.43-.34,1.95,1.54,3.92,2.91,7.83,1.57,12.15-.09.29.4.76.63,1.15-.56.47-1.31.84-1.66,1.44-3.76,6.4-13.8,8.25-19.76,4.29-4.12-2.74-5.85-6.51-6.64-10.99-.32-1.79.3-3.74.36-5.63.03-1.02.06-2.2-.39-3.03-1.24-2.31-2.74-4.48-4.13-6.7,1.16,1,2.37,1.95,3.46,3.03.9.89,1.65,1.95,2.51,2.88,2.26,2.45,5.87,1.65,8.16-.47,2.41-2.22,2.45-4.68.46-7.52-.98-1.4-1.64-3.03-2.42-4.57-.64-1.26-1.12-2.62-1.91-3.77-1.06-1.53-1.48-3.11-1.1-4.93,2.84,4.34,5.64,8.71,8.56,13,.47.68,1.39,1.32,2.18,1.44,4.33.67,7.85,2.65,10.48,6.27Z"/><path class="cls-25" d="m76.78,349.83c1.87,1.63,3.87,3.01,6.42,3.09,1.93.06,3.82-.63,5.64-.85,4.05-.49,6.62-3.16,9.28-5.51,2.52-2.23,4.34-5.33,6.4-8.1,4.2-5.65,8.37-11.31,12.52-17,3.84-5.27,7.61-10.58,11.44-15.86.52-.72,1.2-1.33,1.77-2.02,3.86-4.58,7.72-9.16,11.57-13.75,2.24-2.67,4.46-5.35,6.69-8.02,1.06,2.04.74,4.06-.44,5.84-4.56,6.86-9.12,13.72-13.83,20.46-4.49,6.42-9.08,12.78-13.8,19.02-4.12,5.46-8.42,10.78-12.76,16.06-2.62,3.2-5.46,6.21-8.2,9.3-.8.31-1.87.39-2.34.98-2.22,2.77-5.32,3.62-8.48,4.08-4.57.67-8.76-.94-12.45-3.46-3.42-2.33-5.49-5.83-5.85-10.18.37.02.73.03,1.1.05.83,2.86,2.68,4.74,5.33,5.85Z"/><path class="cls-27" d="m325.07,434.8c6.76-1.85,11.52-6.04,14.2-12.7,1.75,2.13,3.49,4.27,5.26,6.39.32.38.71.69,1.06,1.04,1.91,2.34,3.83,4.69,5.74,7.03.65,1.01,1.16,2.18,1.99,2.99,2.67,2.61,3.7,5.68,3.39,9.45-.28,3.32-3.72,7.8-8.15,6.4-3.41-1.08-6.25-3-9.11-5.02-.54-.38-1.19-.6-1.79-.89-.24,0-.48,0-.72,0-1.28-1.73-2.5-3.52-3.86-5.18-2.63-3.21-5.34-6.34-8.02-9.51Z"/><path class="cls-4" d="m131.12,267.23c-.41.52-.73,1.21-1.26,1.52-1.87,1.08-3.81,2.01-5.71,3.03-.33.18-.62.44-.89.72-2.57,2.64-5.06,5.37-7.72,7.91-5.53,5.28-9.86,11.59-14.34,17.74-4.33,5.95-8.37,12.13-12.29,18.38-3.24,5.16-6.06,10.58-9.17,15.82-1.24,2.09-2.73,4.02-4.17,5.97-.26.34-.87.43-1.33.59-1.18.4-2.36.78-3.54,1.17-.13,0-.25,0-.38,0,0-1.69,0-3.38,0-5.07.12,0,.25,0,.37,0,1.02,1.44,1.47,1.44,2.32-.13,1.79-3.28,3.48-6.61,5.31-9.87,2.54-4.53,5.1-9.05,7.79-13.49,2.73-4.51,5.51-8.99,8.47-13.34,2.91-4.29,6.09-8.38,9.11-12.6,1.46-2.03,2.64-4.29,4.25-6.18,2.9-3.4,6.19-6.46,9.01-9.92,1.83-2.25,3.92-3.71,6.59-4.59.74-.25,1.21-1.39,1.8-2.13,1.93,1.49,3.86,2.98,5.78,4.46Z"/><path class="cls-17" d="m133.18,115.52c2.42-1.92,5.15-3.25,8.11-3.86,4.31-.9,7.29-3.51,9.76-7.05,1.03-1.47,2.61-1.06,3.92-.43,2.39,1.16,2.8,1.14,4.27-1.21,1.6-2.56,3.09-5.19,4.7-7.74.56-.89,1.32-1.64,2.28-2.79.6,1.76.97,3.1,1.53,4.36.31.69.92,1.24,1.4,1.86.49-.52,1.17-.95,1.43-1.57,1.94-4.77,3.8-9.58,5.7-14.36.24-.61.65-1.15.98-1.72.22.06.45.13.67.19.28,2.33.54,4.66.83,6.99.06.51.14,1.04.36,1.5.2.42.55,1.01.89,1.05.33.04.9-.43,1.08-.81.69-1.51,1.31-3.06,1.86-4.63.77-2.24,1.42-4.53,3.68-6.45.68,2.02,1.26,3.74,1.85,5.46.2,0,.4,0,.6,0,.52-1,1.04-1.99,1.55-2.99.12-.23.18-.51.35-.69.79-.88,1.6-1.73,2.4-2.6.56.89,1.13,1.78,1.69,2.67.13.21.2.46.3.68,2.95-.81,3.84-.18,4.98,3.5.21.67.32,1.38.48,2.07-.52-.34-1.15-.57-1.53-1.03-1.04-1.28-1.84-.91-2.77.15-1.9,2.18-1.92,2.16-3.32-.41-.05-.09-.22-.1-.44-.19-.2.15-.54.27-.67.52-.79,1.53-1.47,3.13-2.31,4.63-.44.79-1.13,1.43-1.71,2.14-.59-.7-1.19-1.4-1.78-2.11-.08-.1-.1-.24-.17-.35-.3-.45-.62-.89-.93-1.33-.45.38-1.06.67-1.33,1.16-1.19,2.2-2.17,4.53-3.44,6.68-1.47,2.5-2.06,2.41-3.58-.11-.36-.6-1.09-1.5-1.48-1.42-.65.14-1.26.89-1.72,1.51-.41.55-.55,1.31-.92,1.91-1.08,1.73-2.14,3.47-3.34,5.1-.81,1.1-1.9,1.38-3.17.56-.43-.28-1.21-.53-1.54-.31-2.01,1.3-4.12,2.54-5.82,4.2-1.38,1.34-2.58,2.53-4.6,2.6-.68.02-1.35.6-2.02.93-.77.38-1.56.74-2.31,1.17-1.23.7-2.45,1.44-3.66,2.19-1.12.7-2.13,1.84-3.33,2.08-3.32.67-6.7.97-10.06,1.41.11-1.04.21-2.08.32-3.13Z"/><path class="cls-19" d="m81.96,216.69c.12,1.3.24,2.6.37,3.91.17,5.19,5.32,8.84,10.16,7.9,2.79-.54,5.04-.44,6.99,1.77.17.4.26.88.53,1.19,3.05,3.43,5.99,6.99,9.25,10.2,3.15,3.1,5.71,6.51,7.4,10.64.41,1,1.02,1.92,1.55,2.88-.07.58-.15,1.17-.22,1.75-.4.23-.91.36-1.18.69-2.24,2.73-4.44,5.49-6.65,8.24.2-2.84-.75-5.15-2.38-7.52-1.99-2.89-4.17-5.69-4.81-9.54-.38-2.28-2.13-4.56-3.78-6.34-2.8-3.03-5.54-6-7.4-9.78-.43-.88-1.5-1.57-2.43-2.01-2.68-1.27-5.09-2.85-7-5.19-1.79-2.2-2.45-4.66-1.5-7.41.18-.53.73-.92,1.11-1.38Z"/><path class="cls-1" d="m202.33,95.14c.01.13.02.25.03.38,0,.52,0,1.05-.01,1.57-.45,3.6-2.09,6.41-5.06,8.45-7.99,5.5-17.26,7.78-26.13,11.04-6.46,2.38-12.96,4.66-19.4,7.1-2.71,1.03-5.31,2.36-7.97,3.52-.45.2-.96.26-1.45.38-1.84-.24-3.69-.53-5.54-.72-3.28-.33-3.77-.85-3.88-4.32,4.82-.41,9.66-.69,14.46-1.27,3.54-.43,7.08-.93,10.23-3.05,1.75-1.18,3.89-1.75,5.82-2.67,1.69-.8,3.57-1.41,4.94-2.61,2.12-1.87,4.56-2.93,7.16-3.21,1.98-.21,3.3-1.02,4.51-2.42.46-.53.97-1.03,1.47-1.52,1.03-.99,2.07-1.75,3.69-1.33,1.55.4,2.82-.37,3.73-1.72.53-.8.98-1.73,1.69-2.31.58-.48,1.7-.94,2.23-.67,1.48.76,2.28.16,2.96-1.02,1.47-2.54,4.17-2.73,6.51-3.61Z"/><path class="cls-11" d="m132.86,118.64c3.36-.45,6.75-.75,10.06-1.41,1.19-.24,2.21-1.38,3.33-2.08,1.21-.75,2.42-1.49,3.66-2.19.75-.43,1.54-.79,2.31-1.17.67-.33,1.33-.91,2.02-.93,2.02-.07,3.23-1.26,4.6-2.6,1.7-1.66,3.81-2.89,5.82-4.2.33-.21,1.11.04,1.54.31,1.27.82,2.36.54,3.17-.56,1.2-1.63,2.27-3.37,3.34-5.1.37-.6.51-1.36.92-1.91.47-.62,1.07-1.37,1.72-1.51.39-.08,1.12.82,1.48,1.42,1.52,2.51,2.11,2.61,3.58.11,1.26-2.15,2.25-4.48,3.44-6.68.26-.49.88-.78,1.33-1.16.31.44.62.88.93,1.33.07.11.09.25.17.35.59.71,1.18,1.41,1.78,2.11.58-.71,1.27-1.35,1.71-2.14.84-1.5,1.52-3.1,2.31-4.63.13-.25.47-.37.67-.52.22.09.4.1.44.19,1.4,2.56,1.42,2.59,3.32.41.92-1.06,1.72-1.43,2.77-.15.38.46,1.01.69,1.53,1.03.38,1.3.76,2.6,1.14,3.91-.91.03-1.99.39-2.69.02-1.44-.76-2.12-.21-2.72.99-.5.98-1,1.96-1.58,3.11-.57-.5-.87-.72-1.12-.99-1.38-1.52-2.16-1.49-3.19.27-.51.88-.88,1.86-1.26,2.83-.87,2.24-1.68,2.48-3.42,1-1.55-1.33-2.4-1.22-3.5.58-.84,1.37-1.49,2.86-2.36,4.21-.66,1.04-1.58,2.13-2.94,1.62-1.46-.54-2.64-.09-3.73.69-1.74,1.26-3.35,2.71-5.08,3.99-.89.66-1.86,1.28-2.88,1.67-3.57,1.38-7.42,2.14-10.05,5.37-.31.38-.82.61-1.28.81-4.33,1.86-8.88,2.79-13.54,3.19-2.62.22-5.23.53-7.85.8.03-.78.06-1.57.1-2.35Z"/><path class="cls-10" d="m337.67,449.49c.6.29,1.25.51,1.79.89,2.86,2.02,5.69,3.94,9.11,5.02,4.43,1.4,7.87-3.07,8.15-6.4.31-3.77-.72-6.84-3.39-9.45-.83-.81-1.34-1.98-1.99-2.99.61-.13,1.22-.27,1.82-.4,3.34-.11,6.46.61,9.46,2.18.63.33,1.79,0,2.52-.38,3.53-1.9,6.99-3.92,10.48-5.89.49-.28,1.02-.49,1.54-.74.03.34.2.76.07,1.02-1.44,2.99-3.13,5.87-4.32,8.95-.57,1.47-.2,3.32-.3,5-.05.86-.21,1.72-.31,2.57l-.58.17c-.9-1.42-1.74-2.89-2.72-4.24-1.08-1.5-2.24-2.96-3.5-4.31-.4-.42-1.22-.42-1.85-.61-.14.65-.53,1.36-.39,1.94,1.04,4.36-.5,7.92-2.82,11.45-2.68,4.09-6.86,5.73-11.03,6.94-3.37.98-7.02.21-10.41-1.06-.71-.26-1.45-.44-2.17-.65-.21-1.31-.43-2.62-.64-3.93,1.55.65,3.07,1.38,4.66,1.89.44.14,1.08-.36,1.63-.57-.21-.5-.31-1.08-.64-1.48-1.36-1.67-2.79-3.28-4.19-4.92Z"/><path class="cls-12" d="m132.77,120.99c2.62-.27,5.23-.57,7.85-.8,4.67-.4,9.21-1.33,13.54-3.19.46-.2.97-.43,1.28-.81,2.63-3.23,6.48-4,10.05-5.37,1.02-.39,1.99-1.01,2.88-1.67,1.73-1.28,3.33-2.74,5.08-3.99,1.08-.78,2.26-1.23,3.73-.69,1.36.51,2.27-.58,2.94-1.62.86-1.35,1.52-2.84,2.36-4.21,1.1-1.8,1.95-1.91,3.5-.58,1.74,1.49,2.55,1.24,3.42-1,.37-.96.74-1.94,1.26-2.83,1.02-1.76,1.81-1.79,3.19-.27.25.27.55.49,1.12.99.58-1.14,1.08-2.12,1.58-3.11.61-1.2,1.29-1.75,2.72-.99.71.38,1.78.01,2.69-.02.13.26.26.52.39.78,0,1.17,0,2.34,0,3.52-2.34.88-5.03,1.06-6.51,3.61-.68,1.18-1.48,1.77-2.96,1.02-.52-.27-1.64.2-2.23.67-.71.58-1.15,1.51-1.69,2.31-.91,1.36-2.18,2.12-3.73,1.72-1.62-.42-2.65.34-3.69,1.33-.51.49-1.01.99-1.47,1.52-1.21,1.4-2.53,2.21-4.51,2.42-2.6.28-5.04,1.33-7.16,3.21-1.37,1.21-3.25,1.82-4.94,2.61-1.93.92-4.07,1.49-5.82,2.67-3.15,2.12-6.69,2.62-10.23,3.05-4.8.58-9.64.86-14.46,1.27-.05-.52-.11-1.04-.16-1.56Z"/><path class="cls-18" d="m110.14,265.85c2.21-2.75,4.41-5.52,6.65-8.24.27-.33.78-.47,1.18-.69,1.74,1.39,3.48,2.78,5.22,4.17-.73.51-1.4,1.14-2.19,1.5-4.09,1.86-6.86,5.33-9.61,8.68-3.56,4.34-6.81,8.98-10.02,13.61-5.3,7.64-10.5,15.36-15.68,23.1-2.67,3.99-5.16,8.11-7.83,12.11-.39.59-1.27.84-1.92,1.24.99-2.23,1.88-4.51,2.97-6.68,4.93-9.79,10.52-19.2,16.68-28.22,4.74-6.93,9.68-13.72,14.53-20.57Z"/><path class="cls-9" d="m75.95,321.32c.65-.41,1.53-.65,1.92-1.24,2.66-4,5.15-8.12,7.83-12.11,5.18-7.73,10.38-15.45,15.68-23.1,3.21-4.63,6.46-9.27,10.02-13.61,2.74-3.35,5.51-6.82,9.61-8.68.79-.36,1.47-.99,2.19-1.5.71.56,1.42,1.12,2.13,1.68-.59.73-1.05,1.88-1.8,2.13-2.67.88-4.75,2.34-6.59,4.59-2.82,3.46-6.11,6.52-9.01,9.92-1.61,1.89-2.8,4.15-4.25,6.18-3.02,4.21-6.2,8.31-9.11,12.6-2.96,4.35-5.74,8.83-8.47,13.34-2.69,4.44-5.24,8.96-7.79,13.49-1.83,3.26-3.52,6.59-5.31,9.87-.85,1.56-1.3,1.56-2.32.13.1-.54.21-1.09.31-1.63,1.65-4.02,3.3-8.03,4.96-12.05Z"/><path class="cls-29" d="m345.69,471.33c1.73.87,3.47,1.73,5.2,2.6-.31.32-.62.65-.94.97-1.34,1.1-3.02,1.95-3.95,3.33-3.02,4.54-5.97,9.16-8.57,13.95-3.35,6.16-6.43,12.47-9.42,18.83-.94,2-2.07,4.28-.54,6.62-.45.92-.9,1.83-1.34,2.75-1.48-1.32-2.97-2.64-4.45-3.96.28-.34.62-.65.83-1.03,2.51-4.72,4.99-9.45,7.5-14.17,3.26-6.12,6.57-12.21,9.8-18.35,2.01-3.82,3.92-7.7,5.87-11.55Z"/><path class="cls-10" d="m327.48,517.64c-1.53-2.35-.4-4.62.54-6.62,2.99-6.35,6.07-12.67,9.42-18.83,2.61-4.8,5.55-9.42,8.57-13.95.92-1.39,2.61-2.24,3.95-3.33-.09.48-.07,1.03-.29,1.43-2.76,5.05-5.6,10.07-8.34,15.14-1.68,3.11-3.13,6.35-4.81,9.46-2.64,4.92-5.39,9.78-8.08,14.67-.36.66-.64,1.36-.96,2.04Z"/><path class="cls-17" d="m118.2,255.16c-.52-.96-1.13-1.88-1.55-2.88-1.69-4.13-4.25-7.54-7.4-10.64-3.26-3.21-6.2-6.77-9.25-10.2-.27-.31-.36-.79-.53-1.19.65.39,1.32.74,1.94,1.16,2.14,1.45,4.27,2.93,6.4,4.39.37.26.74.51,1.11.77.39.27.77.55,1.16.82.37.25.73.5,1.1.75.53.39,1.05.78,1.58,1.17,1.46,1.11,2.86,2.32,4.4,3.29,1.18.74,1.7,1.68,1.97,3.03.45,2.26,1.12,4.47,1.7,6.7-.88.94-1.77,1.88-2.65,2.81Z"/><path class="cls-21" d="m342.95,400.04c1.6-.49,2.23.35,2.51,1.65.85,3.85,1.69,7.7,2.49,11.55.32,1.56-.47,2.56-2.23,2.9-1.45.28-2.69.05-3.07-1.71-.78-3.6-1.52-7.21-2.33-10.8-.45-2-.4-3.34,2.63-3.59Z"/><path class="cls-16" d="m321.69,516.43c1.48,1.32,2.97,2.64,4.45,3.96,1.91,2.29,3.38,4.78,3.32,7.95-1.33-.27-2.76-.33-3.99-.86-2.32-1-4.6-2.15-6.75-3.48-.83-.52-1.27-1.7-1.88-2.59.76-.56,1.69-.98,2.25-1.7.81-1.04,1.34-2.31,1.99-3.47.2.07.41.13.61.2Z"/><path class="cls-24" d="m336.89,364.26c.23,1.3-.86,1.71-2.19,1.79-1.19.07-2.27.16-2.53-1.64-.47-3.17-1.22-6.3-1.85-9.45-.01-.06,0-.13-.02-.19-.66-3.22.19-4.13,3.3-3.31.54.14,1.09,1.03,1.26,1.67.59,2.21,1.06,4.46,1.48,6.72.25,1.31.33,2.65.54,4.42Z"/><path class="cls-24" d="m324.9,330.15c-.29-1.19.83-1.68,2.09-1.9,1.28-.23,2.25.06,2.56,1.69.64,3.34,1.43,6.65,2.18,9.96.39,1.7-.23,2.51-1.93,2.74-1.45.2-2.27.03-2.59-1.73-.56-3.06-1.42-6.06-2.14-9.1-.09-.37-.08-.77-.17-1.67Z"/><path class="cls-24" d="m319.98,308.97c.03-1.68.79-2.58,2.47-2.8,2.12-.27,2.5,1.22,2.93,2.75.17,1.52.27,3.05.52,4.55.25,1.48.67,2.94.97,4.41.32,1.6-.66,2.23-1.95,2.5-1.2.25-2.06-.1-2.36-1.5-.4-1.86-.92-3.69-1.4-5.53-.38-1.47-.78-2.92-1.18-4.39Z"/><path class="cls-24" d="m336.85,386.21c-.66-3.16-1.32-6.33-1.96-9.49-.03-.17.04-.5.14-.53,1.22-.43,2.44-.98,3.7-1.11.31-.03.91,1.31,1.1,2.08.7,2.75,1.28,5.54,1.91,8.31-1.63.25-3.27.49-4.9.74Z"/><path class="cls-21" d="m353.16,436.16c-.61.13-1.22.27-1.82.4-1.91-2.34-3.83-4.69-5.74-7.03-.17-1.9.6-3.09,2.47-3.45,1.84-.36,2.71.19,3.16,2.04.66,2.68,1.29,5.36,1.94,8.05Z"/><path class="cls-29" d="m337.67,449.49c1.4,1.63,2.83,3.25,4.19,4.92.32.4.43.98.64,1.48-.55.21-1.19.71-1.63.57-1.59-.51-3.11-1.24-4.66-1.89.25-1.69.49-3.39.74-5.08.24,0,.48,0,.72,0Z"/><path class="cls-21" d="m336.85,386.21c1.63-.25,3.27-.49,4.9-.74,1.1,2.9.94,4.07-.64,4.85-1.98.97-3.46.23-3.97-2.03-.15-.68-.2-1.38-.3-2.08Z"/><path class="cls-7" d="m225.7,256.7c1.66-.58,3.31-1.16,5.31-1.85-.92,2.31-1.63,4.08-2.33,5.85-.99-1.33-1.98-2.67-2.97-4Z"/><path class="cls-10" d="m372.61,454.57c-1.25-1.15-.8-2.4-.09-4.14,1.27.74,2.44,1.43,3.61,2.11-1.17.68-2.35,1.35-3.52,2.03Z"/><path class="cls-1" d="m291.09,161.44c-.57.14-1.15.39-1.72.4-2.59.03-5.19-.09-7.78.01-1.38.06-2.16-.38-2.4-1.78.83,1.13,1.9,1.42,3.28,1.36,2.87-.12,5.75-.01,8.63,0Z"/><path class="cls-12" d="m159.84,235.14c-3.8.2-7.6.43-11.4.58-.47.02-.95-.4-1.42-.62,4.27.01,8.54.03,12.82.04Z"/><path class="cls-5" d="m202.34,250.55c3.36-.14,6.71-.31,10.07-.4.49-.01.98.37,1.47.57-3.11-.03-6.22-.05-9.33-.08-.74,0-1.47-.06-2.21-.08Z"/><path class="cls-12" d="m562.19,366.91c2.97,0,5.95,0,8.92-.01-2.97.99-5.95,1.02-8.92.01Z"/><path class="cls-7" d="m245.53,286.49c.1.19.19.38.29.57-.1-.19-.19-.38-.29-.57Z"/><path class="cls-7" d="m246.51,287.74c.02.16.04.33.07.49-.02-.16-.04-.33-.07-.49Z"/><path class="cls-7" d="m247.28,288.91c.02.16.04.33.07.49-.02-.16-.04-.33-.07-.49Z"/><path class="cls-7" d="m248.04,290.09c.02.16.04.33.06.49-.02-.16-.04-.33-.06-.49Z"/><path class="cls-7" d="m245.21,286.05c.07.1.14.2.2.29-.07-.1-.14-.19-.2-.29Z"/><path class="cls-7" d="m245.95,287.28c.15,0,.22.07.22.23-.07-.08-.15-.15-.22-.23Z"/><path class="cls-7" d="m246.72,288.45c.15,0,.22.07.22.23-.07-.08-.15-.15-.22-.23Z"/><path class="cls-7" d="m247.48,289.62c.15,0,.22.07.22.23-.07-.08-.15-.15-.22-.23Z"/><path class="cls-25" d="m100.52,205.89c-5.98-3.3-11.03-1.69-15.5,3.07-.33-2.2,1.46-3.1,2.69-4.13,3.54-2.96,8.44-2.97,12.14-.2.34.25.45.83.66,1.26Z"/><path class="cls-14" d="m70.31,340.07c.13,0,.25,0,.38,0-.12.91-.24,1.82-.36,2.73,0-.91,0-1.82-.01-2.73Z"/><path class="cls-28" d="m202.35,97.09c0-.52,0-1.05.01-1.57,1.05.53,1.06,1.06-.01,1.57Z"/><path class="cls-23" d="m71,333.37c-.1.54-.21,1.09-.31,1.63-.12,0-.25,0-.37,0,.23-.54.45-1.09.68-1.63Z"/><path class="cls-2" d="m278.59,296.12c-2.63-3.62-6.15-5.6-10.48-6.27-.79-.12-1.71-.76-2.18-1.44-2.91-4.29-5.72-8.66-8.56-13-.57-.9-1.15-1.79-1.72-2.69-.86-1.28-1.73-2.56-2.59-3.85-.51-.79-1.03-1.59-1.54-2.38-.15-.41-.24-.87-.47-1.23-3.76-5.85-7.54-11.69-11.32-17.52.94-3.67,1.48-7.5.24-11.03-.78-2.24.11-3.41,1.01-4.94,3.03-5.2,5.99-10.45,9.07-15.63,2.43-4.09,5.04-8.07,7.51-12.14,3.25-5.35,6.4-10.77,9.7-16.08.5-.81,1.55-1.6,2.45-1.77,4.47-.82,8.24-2.65,10.85-6.67.33-.51,1.27-.82,1.93-.84,6.24-.19,12.49-.29,18.73-.44,4.41-.11,8.82-.26,13.22-.4,4.09-.13,8.18-.25,12.27-.4,3.08-.11,6.16-.32,9.24-.37.66,0,1.54.31,1.95.8,2.49,2.98,5.63,4.68,9.33,5.49.72.16,1.53.85,1.91,1.52,4.3,7.64,8.55,15.31,12.75,23.01,3.36,6.16,6.63,12.37,9.9,18.58.26.5.45,1.29.25,1.75-1.55,3.61-1.47,7.23-.47,10.97.21.78-.03,1.91-.46,2.62-4.88,7.98-9.83,15.91-14.75,23.86-.44.71-.77,1.48-1.15,2.22-.52.8-1.05,1.6-1.57,2.4-.22.36-.44.72-.66,1.09-2.78,4.4-5.53,8.82-8.38,13.17-.42.64-1.27,1.19-2.01,1.34-4.24.89-7.85,2.71-10.36,6.5-1.09,1.65-2.91,1.27-4.51,1.43-1.92.19-3.84.42-5.75.63-.72-2.81-1.42-5.63-2.18-8.43-.08-.3-.41-.7-.68-.75-2.66-.46-3.8.99-3.17,3.85.37,1.67.57,3.39.84,5.08-5.37.37-10.75.72-16.11,1.12-3.32.25-6.63.58-9.94.88-1.39-.12-2.79-.25-4.18-.37-.39.09-.78.17-1.17.26-.37.05-.75.09-1.12.14-.14.1-.28.2-.42.3-1.75-.12-3.5-.24-5.26-.36Zm39.35-20.59c-.84-3.18-1.6-6.39-2.55-9.53-.41-1.37-1.86-1.24-2.69-.81-.65.34-1.33,1.63-1.21,2.35.49,2.89,1.47,5.69,1.91,8.59.27,1.77,1.12,2.16,2.52,2.01,1.46-.15,2.07-1.06,2.02-2.61Zm-10.9-28.32c.84,3.58,1.64,6.61,2.23,9.67.29,1.52,1.32,1.72,2.31,1.51,1.17-.25,2.16-.89,1.75-2.59-.67-2.78-1.34-5.58-1.65-8.42-.18-1.63-1.4-2-2.16-1.9-.93.11-1.75,1.18-2.49,1.73Z"/><path class="cls-27" d="m230.78,260.12c.77-2.61,2.18-3.96,3.91-4.94,1.59-.9,2.9-.22,4.03,1.06,3.67,4.16,7.6,8.11,10.93,12.53,2.37,3.16,3.93,6.95,5.87,10.46.56,1.01,1.18,1.99,1.7,3.02,1.54,3.03,3.15,6.04,4.5,9.16.63,1.45-.14,2.9-1.43,3.69-1.38.84-2.86,2.36-4.56.62-2.19-2.23-4.5-4.39-6.41-6.87-3.19-4.14-6.24-8.42-9.11-12.81-2.4-3.66-4.44-7.57-6.66-11.35-.95-1.63-1.95-3.22-2.77-4.57Z"/><path class="cls-13" d="m257.59,182.25c1.38.85,2.62,1.61,3.86,2.36,1.2.72.55,1.52.09,2.28-3.19,5.38-6.39,10.75-9.59,16.13-4.92,8.25-9.83,16.51-14.75,24.76-.39.65-.81,1.29-1.25,2-1.61-1-3.1-1.93-4.84-3.02,8.83-14.84,17.65-29.66,26.48-44.51Z"/><path class="cls-13" d="m380.8,220.08c-1.74,1-3.32,1.9-5.13,2.94-7.2-13.33-14.39-26.64-21.62-40.02,1.78-1.01,3.41-1.94,5.22-2.97,7.18,13.36,14.34,26.67,21.54,40.06Z"/><path class="cls-29" d="m107.82,235.81c-2.13-1.47-4.26-2.94-6.4-4.39-.62-.42-1.29-.78-1.94-1.16-1.95-2.21-4.2-2.31-6.99-1.77-4.84.94-10-2.71-10.16-7.9.55.24,1.21.35,1.65.73,2.06,1.78,4.22,2.56,6.65.84,1.88-1.33,3.38-.73,4.84.74,3.69,3.7,7.43,7.35,11.12,11.05.51.51.83,1.23,1.23,1.85Z"/><path class="cls-29" d="m105.11,213.15c.45.62.77,1.44,1.36,1.84,4.57,3.13,9.19,6.18,13.79,9.27.36.24.64.61.96.93-.6-.14-1.28-.15-1.79-.45-6.03-3.59-12.53-5.99-19.18-8.02-2.29-.7-2.49-1.75-.97-3.62.79-.97,1.35-2.15,2.16-3.11.44-.52,1.19-.76,1.79-1.13.13.27.26.54.38.81.1.11.2.22.29.33.4,1.05.8,2.1,1.2,3.15Z"/><path class="cls-7" d="m239.74,247.74c3.78,5.84,7.55,11.68,11.32,17.52.23.36.32.82.47,1.23-.91-.64-1.95-1.15-2.72-1.94-3.31-3.41-6.54-6.91-9.83-10.35-.29-.3-.73-.48-1.13-.64-2.27-.91-2.38-1.17-.81-3.15.78-.99,1.79-1.79,2.7-2.67Z"/><path class="cls-7" d="m253.07,268.88c.86,1.28,1.73,2.56,2.59,3.85-2.03-.22-2.29-.61-2.59-3.85Z"/><path class="cls-10" d="m353.67,270.25c.52-.8,1.05-1.6,1.57-2.4.1,1.23.46,2.63-1.57,2.4Z"/><path class="cls-29" d="m112.77,239.32c-.53-.39-1.05-.78-1.58-1.17.53.39,1.05.78,1.58,1.17Z"/><path class="cls-29" d="m110.09,237.41c-.39-.27-.77-.55-1.16-.82.39.27.77.55,1.16.82Z"/><path class="cls-3" d="m103.91,210c-.1-.11-.2-.22-.29-.33.1.11.2.22.29.33Z"/><path class="cls-8" d="m321.69,516.43c-.2-.07-.41-.13-.61-.2.78-1.75,1.47-3.56,2.36-5.25,2.81-5.37,5.69-10.71,8.57-16.05,4.09-7.61,8.19-15.23,12.33-22.81.22-.4.9-.53,1.36-.78-1.95,3.85-3.86,7.73-5.87,11.55-3.23,6.14-6.54,12.23-9.8,18.35-2.51,4.72-4.99,9.45-7.5,14.17-.2.38-.55.69-.83,1.03Z"/><path class="cls-13" d="m285.8,301.12c2.92-.23,5.85-.45,8.77-.68,2.82-.14,5.63-.29,8.45-.43,5.57-.27,11.13-.54,16.7-.82.17-.01.35-.03.52-.04.43-.02.87-.04,1.3-.06,2.68,0,5.36,0,8.21,0v4.24c-1.6.18-3.14.44-4.68.52-6.09.31-12.19.54-18.29.85-7.47.37-14.95.79-22.42,1.19-.13,0-.25,0-.38.02-2.3.36-3.71-1.22-3.05-3.58.13-.48.93-.95,1.49-1.07.98-.2,2.01-.11,3.02-.15.12.05.24.06.36.02Z"/><path class="cls-7" d="m319.71,299.19c-5.57.27-11.13.54-16.7.82-2.82.14-5.63.29-8.45.43-.91-.47-1.81-.97-2.74-1.4-1.32-.6-1.68-1.54-1.08-2.88,3.31-.3,6.62-.63,9.94-.88,5.37-.4,10.74-.75,16.12-1.12.21.66.5,1.31.6,1.98.22,1.49.81,2.62,2.31,3.04Z"/><path class="cls-24" d="m319.71,299.19c-1.51-.42-2.1-1.55-2.31-3.04-.1-.68-.39-1.32-.6-1.98-.27-1.69-.47-3.41-.84-5.08-.63-2.86.51-4.31,3.17-3.85.27.05.6.45.68.75.75,2.8,1.46,5.62,2.18,8.43.29,1.48.85,3-.49,4.28-.42.15-.84.31-1.26.46-.17.01-.35.03-.52.04Z"/><path class="cls-7" d="m285.39,296.05c.39-.09.78-.17,1.17-.26-.39.09-.78.17-1.17.26Z"/><path class="cls-7" d="m320.23,299.15c.42-.15.84-.31,1.26-.46.01.13.03.27.04.4-.43.02-.87.04-1.3.06Z"/><path class="cls-7" d="m283.85,296.49c.14-.1.28-.2.42-.3-.14.1-.28.2-.42.3Z"/><path class="cls-7" d="m285.8,301.12c-.12.04-.24.04-.36-.02.09-.04.17-.09.26-.11.02,0,.07.08.1.12Z"/><path class="cls-24" d="m317.94,275.53c.05,1.56-.56,2.46-2.02,2.61-1.4.15-2.25-.24-2.52-2.01-.44-2.89-1.42-5.7-1.91-8.59-.12-.72.56-2.01,1.21-2.35.83-.43,2.28-.56,2.69.81.95,3.15,1.71,6.35,2.55,9.53Z"/><path class="cls-24" d="m307.04,247.21c.74-.55,1.56-1.62,2.49-1.73.76-.09,1.98.27,2.16,1.9.31,2.84.98,5.64,1.65,8.42.41,1.7-.58,2.34-1.75,2.59-1,.21-2.02.01-2.31-1.51-.59-3.07-1.39-6.09-2.23-9.67Z"/></g></svg>